<svg xmlns="http://www.w3.org/2000/svg" xmlns:xlink="http://www.w3.org/1999/xlink" width="500" zoomAndPan="magnify" viewBox="0 0 375 374.999991" height="500" preserveAspectRatio="xMidYMid meet" version="1.0"><defs><g/><clipPath id="461ee73687"><path d="M 333 221 L 344 221 L 344 282.980469 L 333 282.980469 Z M 333 221 " clip-rule="nonzero"/></clipPath></defs><g fill="#eeeeee" fill-opacity="1"><g transform="translate(110.154722, 250.90242)"><g><path d="M 2.8125 -71.5625 L 16.78125 -73.75 C 22.9375 -74.71875 26.613281 -72.6875 27.8125 -67.65625 C 28.582031 -64.476562 28.8125 -60.664062 28.5 -56.21875 C 28.1875 -51.78125 27.820312 -48.429688 27.40625 -46.171875 C 26.53125 -41.191406 25.023438 -37.421875 22.890625 -34.859375 C 20.765625 -32.296875 17.691406 -30.695312 13.671875 -30.0625 L 7.859375 -29.15625 L 5.875 -0.921875 L -2.28125 0.359375 Z M 20.25 -54.21875 C 20.625 -59.144531 20.503906 -62.582031 19.890625 -64.53125 C 19.273438 -66.488281 17.867188 -67.296875 15.671875 -66.953125 L 10.5 -66.140625 L 8.375 -36.1875 L 13.34375 -36.96875 C 15.664062 -37.332031 17.285156 -38.625 18.203125 -40.84375 C 19.117188 -43.0625 19.785156 -47.0625 20.203125 -52.84375 Z M 20.25 -54.21875 "/></g></g><g transform="translate(145.249435, 245.389935)"><g><path d="M 2.8125 -71.5625 L 23.5625 -74.8125 L 23.046875 -67.796875 L 10.46875 -65.8125 L 8.71875 -41.203125 L 20.640625 -43.078125 L 20.15625 -36.0625 L 8.25 -34.203125 L 6.390625 -7.953125 L 19.125 -9.953125 L 18.609375 -2.921875 L -2.28125 0.359375 Z M 2.8125 -71.5625 "/></g></g><g transform="translate(175.651709, 240.614513)"><g><path d="M 2.8125 -71.5625 L 10.984375 -72.84375 L 6.359375 -7.921875 L 19.171875 -9.921875 L 18.6875 -2.9375 L -2.28125 0.359375 Z M 2.8125 -71.5625 "/></g></g><g transform="translate(203.727479, 236.204525)"><g><path d="M 0.65625 -51.890625 C 1.238281 -60.078125 3.054688 -65.921875 6.109375 -69.421875 C 8.515625 -72.160156 11.847656 -73.863281 16.109375 -74.53125 C 22.304688 -75.5 26.082031 -73.484375 27.4375 -68.484375 C 28.25 -65.503906 28.472656 -61.410156 28.109375 -56.203125 L 25.8125 -24.5 C 25.289062 -17.007812 23.894531 -11.394531 21.625 -7.65625 C 19.363281 -3.925781 15.703125 -1.660156 10.640625 -0.859375 C 5.578125 -0.0664062 2.132812 -1.222656 0.3125 -4.328125 C -1.5 -7.441406 -2.144531 -12.726562 -1.625 -20.1875 Z M 19.953125 -55.421875 C 20.273438 -60.035156 20.148438 -63.242188 19.578125 -65.046875 C 19.015625 -66.847656 17.65625 -67.578125 15.5 -67.234375 C 13.351562 -66.898438 11.789062 -65.6875 10.8125 -63.59375 C 9.832031 -61.507812 9.1875 -58.21875 8.875 -53.71875 L 6.53125 -21.390625 C 6.164062 -15.921875 6.273438 -12.253906 6.859375 -10.390625 C 7.441406 -8.535156 8.847656 -7.78125 11.078125 -8.125 C 13.316406 -8.476562 14.875 -9.710938 15.75 -11.828125 C 16.632812 -13.953125 17.273438 -17.722656 17.671875 -23.140625 Z M 19.953125 -55.421875 "/></g></g><g transform="translate(240.951535, 230.357575)"><g><path d="M -1.796875 -70.84375 L 21.109375 -74.4375 L 20.59375 -67.40625 L 13.46875 -66.28125 L 8.875 -1.390625 L 0.75 -0.125 L 5.34375 -65.015625 L -2.3125 -63.8125 Z M -1.796875 -70.84375 "/></g></g><g transform="translate(266.069886, 226.412122)"><g><path d="M 3.453125 -71.65625 L 11.609375 -72.9375 L 6.515625 -1.015625 L -1.65625 0.265625 Z M 3.453125 -71.65625 "/></g></g><g transform="translate(286.850688, 223.147988)"><g><path d="M 0.5625 -50.671875 C 0.945312 -56.117188 1.660156 -60.191406 2.703125 -62.890625 C 3.753906 -65.585938 4.84375 -67.617188 5.96875 -68.984375 C 8.394531 -71.941406 11.75 -73.773438 16.03125 -74.484375 C 22.019531 -75.390625 25.695312 -73.253906 27.0625 -68.078125 C 27.820312 -65.117188 28.015625 -61.035156 27.640625 -55.828125 L 27.078125 -47.859375 L 19.078125 -46.609375 L 19.640625 -54.609375 C 19.960938 -59.203125 19.9375 -62.273438 19.5625 -63.828125 C 19.195312 -65.378906 18.691406 -66.363281 18.046875 -66.78125 C 17.410156 -67.207031 16.566406 -67.335938 15.515625 -67.171875 C 13.335938 -66.828125 11.753906 -65.519531 10.765625 -63.25 C 9.773438 -60.976562 9.113281 -57.546875 8.78125 -52.953125 L 6.59375 -21.796875 C 6.195312 -16.347656 6.300781 -12.597656 6.90625 -10.546875 C 7.507812 -8.503906 8.878906 -7.648438 11.015625 -7.984375 C 13.160156 -8.328125 14.671875 -9.644531 15.546875 -11.9375 C 16.421875 -14.226562 17.054688 -18.097656 17.453125 -23.546875 L 18.015625 -31.515625 L 26.09375 -32.78125 L 25.5 -24.90625 C 24.96875 -17.351562 23.582031 -11.644531 21.34375 -7.78125 C 19.113281 -3.914062 15.523438 -1.59375 10.578125 -0.8125 C 5.640625 -0.0390625 2.25 -1.320312 0.40625 -4.65625 C -1.425781 -7.988281 -2.078125 -13.347656 -1.546875 -20.734375 Z M 0.5625 -50.671875 "/></g></g><g transform="translate(323.049505, 217.462077)"><g><path d="M 10.265625 -72.734375 L 20.09375 -74.28125 L 26.46875 -4.15625 L 18.765625 -2.953125 L 17.75 -16.359375 L 5.1875 -14.390625 L 2.40625 -0.375 L -5.359375 0.84375 Z M 6.578125 -21.40625 L 17.234375 -23.078125 L 14.484375 -60.21875 L 14.359375 -60.203125 Z M 6.578125 -21.40625 "/></g></g></g><path fill="#fca311" d="M 104.058594 229.074219 C 102.351562 239.582031 96.9375 249.03125 88.761719 255.820312 C 88.632812 255.664062 88.503906 255.535156 88.375 255.394531 C 88.144531 255.152344 87.914062 254.90625 87.683594 254.664062 C 87.632812 254.613281 87.59375 254.5625 87.542969 254.511719 C 87.925781 254.332031 88.3125 254.152344 88.699219 253.945312 C 89.148438 253.703125 89.597656 253.445312 90.03125 253.148438 C 90.46875 252.867188 90.890625 252.546875 91.289062 252.175781 C 90.738281 252.121094 90.210938 252.136719 89.6875 252.160156 C 89.171875 252.199219 88.660156 252.277344 88.160156 252.355469 C 87.386719 252.496094 86.632812 252.675781 85.886719 252.894531 C 85.707031 252.714844 85.515625 252.546875 85.320312 252.378906 C 85.15625 252.226562 84.988281 252.085938 84.820312 251.929688 C 85.230469 251.75 85.628906 251.558594 86.027344 251.351562 C 86.476562 251.109375 86.925781 250.851562 87.363281 250.558594 C 87.800781 250.273438 88.222656 249.953125 88.621094 249.582031 C 88.070312 249.53125 87.542969 249.542969 87.027344 249.582031 C 86.503906 249.605469 85.988281 249.671875 85.488281 249.761719 C 84.617188 249.914062 83.769531 250.121094 82.949219 250.378906 C 82.921875 250.363281 82.882812 250.339844 82.871094 250.324219 C 82.5625 250.082031 82.242188 249.851562 81.933594 249.621094 C 81.910156 249.59375 81.882812 249.582031 81.855469 249.554688 C 82.164062 249.375 82.484375 249.183594 82.792969 248.992188 C 83.21875 248.695312 83.628906 248.402344 84.039062 248.066406 C 84.4375 247.734375 84.835938 247.386719 85.207031 246.964844 C 84.640625 246.964844 84.117188 247.027344 83.601562 247.117188 C 83.089844 247.207031 82.589844 247.324219 82.089844 247.449219 C 81.355469 247.65625 80.625 247.914062 79.917969 248.195312 C 79.699219 248.042969 79.484375 247.898438 79.265625 247.757812 C 79.199219 247.71875 79.148438 247.683594 79.085938 247.644531 C 79.394531 247.4375 79.6875 247.21875 79.984375 247 C 80.382812 246.679688 80.777344 246.359375 81.164062 245.988281 C 81.535156 245.628906 81.910156 245.257812 82.242188 244.808594 C 81.691406 244.859375 81.175781 244.960938 80.664062 245.078125 C 80.148438 245.207031 79.664062 245.359375 79.175781 245.527344 C 78.457031 245.78125 77.75 246.078125 77.070312 246.410156 C 76.8125 246.269531 76.554688 246.128906 76.300781 245.988281 C 76.132812 245.898438 75.964844 245.796875 75.800781 245.707031 C 76.03125 245.5 76.273438 245.28125 76.503906 245.0625 C 76.863281 244.71875 77.222656 244.332031 77.570312 243.949219 C 77.902344 243.535156 78.238281 243.125 78.519531 242.652344 C 77.96875 242.753906 77.46875 242.90625 76.980469 243.085938 C 76.480469 243.265625 76.003906 243.472656 75.542969 243.691406 C 74.925781 243.972656 74.335938 244.308594 73.757812 244.667969 C 73.628906 244.589844 73.488281 244.523438 73.359375 244.460938 C 73.21875 244.398438 73.066406 244.332031 72.925781 244.253906 C 73.195312 244.023438 73.464844 243.78125 73.734375 243.535156 C 74.09375 243.175781 74.453125 242.816406 74.796875 242.421875 C 75.132812 242.007812 75.464844 241.597656 75.746094 241.125 C 75.207031 241.226562 74.695312 241.378906 74.207031 241.558594 C 73.707031 241.726562 73.246094 241.933594 72.769531 242.152344 C 72.0625 242.496094 71.382812 242.882812 70.730469 243.292969 C 70.523438 243.203125 70.304688 243.125 70.101562 243.035156 C 70.0625 243.023438 70.011719 243.011719 69.972656 242.984375 C 70.191406 242.792969 70.410156 242.601562 70.613281 242.394531 C 70.972656 242.023438 71.320312 241.648438 71.652344 241.238281 C 71.988281 240.828125 72.296875 240.40625 72.578125 239.929688 C 72.027344 240.03125 71.523438 240.210938 71.039062 240.390625 C 70.550781 240.585938 70.085938 240.804688 69.625 241.035156 C 68.972656 241.367188 68.34375 241.738281 67.738281 242.152344 C 67.484375 242.0625 67.226562 241.957031 66.957031 241.867188 C 66.90625 241.855469 66.839844 241.828125 66.789062 241.816406 C 67.046875 241.535156 67.304688 241.265625 67.546875 240.984375 C 67.878906 240.585938 68.203125 240.175781 68.496094 239.75 C 68.777344 239.3125 69.074219 238.863281 69.304688 238.363281 C 68.765625 238.519531 68.289062 238.738281 67.816406 238.953125 C 67.339844 239.1875 66.890625 239.429688 66.457031 239.699219 C 65.761719 240.136719 65.121094 240.609375 64.492188 241.097656 C 64.183594 241.019531 63.875 240.945312 63.582031 240.855469 C 63.800781 240.597656 64.03125 240.316406 64.25 240.03125 C 64.554688 239.621094 64.839844 239.199219 65.121094 238.75 C 65.378906 238.300781 65.632812 237.839844 65.839844 237.324219 C 65.328125 237.515625 64.851562 237.75 64.390625 238.003906 C 63.941406 238.261719 63.503906 238.542969 63.082031 238.828125 C 62.4375 239.277344 61.835938 239.777344 61.257812 240.289062 C 61.15625 240.265625 61.050781 240.238281 60.9375 240.226562 C 60.78125 240.1875 60.628906 240.148438 60.476562 240.109375 C 60.730469 239.816406 60.988281 239.507812 61.21875 239.1875 C 61.527344 238.773438 61.824219 238.351562 62.09375 237.902344 C 62.363281 237.453125 62.617188 236.992188 62.824219 236.476562 C 62.296875 236.65625 61.824219 236.902344 61.359375 237.144531 C 60.910156 237.402344 60.476562 237.683594 60.050781 237.980469 C 59.332031 238.492188 58.652344 239.042969 58.011719 239.648438 C 57.945312 239.636719 57.894531 239.621094 57.832031 239.609375 C 57.332031 239.53125 56.816406 239.46875 56.316406 239.402344 C 56.597656 238.980469 56.867188 238.53125 57.125 238.082031 C 57.367188 237.632812 57.601562 237.171875 57.804688 236.695312 C 58.011719 236.207031 58.203125 235.71875 58.332031 235.179688 C 57.84375 235.4375 57.40625 235.734375 56.984375 236.054688 C 56.574219 236.363281 56.175781 236.695312 55.789062 237.042969 C 55.097656 237.695312 54.46875 238.390625 53.863281 239.121094 C 53.632812 239.097656 53.390625 239.070312 53.144531 239.042969 C 52.902344 239.03125 52.671875 239.019531 52.425781 239.007812 C 52.570312 238.609375 52.683594 238.210938 52.800781 237.800781 C 52.929688 237.3125 53.054688 236.796875 53.132812 236.296875 C 53.222656 235.773438 53.289062 235.246094 53.289062 234.695312 C 52.863281 235.066406 52.515625 235.464844 52.183594 235.863281 C 51.851562 236.273438 51.554688 236.683594 51.273438 237.121094 C 50.886719 237.695312 50.554688 238.289062 50.234375 238.890625 C 50.09375 238.890625 49.949219 238.890625 49.808594 238.890625 C 49.359375 238.878906 48.910156 238.863281 48.476562 238.863281 C 48.269531 238.863281 48.0625 238.863281 47.859375 238.863281 C 47.949219 238.492188 48.039062 238.09375 48.117188 237.710938 C 48.191406 237.195312 48.269531 236.695312 48.308594 236.167969 C 48.347656 235.644531 48.371094 235.117188 48.320312 234.566406 C 47.9375 234.964844 47.628906 235.386719 47.320312 235.824219 C 47.039062 236.257812 46.769531 236.695312 46.523438 237.144531 C 46.214844 237.734375 45.933594 238.339844 45.675781 238.941406 C 45.496094 238.941406 45.304688 238.96875 45.113281 238.980469 C 44.894531 238.992188 44.664062 238.992188 44.433594 239.007812 C 44.535156 238.648438 44.613281 238.273438 44.675781 237.902344 C 44.765625 237.390625 44.84375 236.875 44.882812 236.363281 C 44.917969 235.835938 44.933594 235.308594 44.894531 234.757812 C 44.507812 235.15625 44.1875 235.578125 43.894531 236.015625 C 43.597656 236.453125 43.339844 236.886719 43.097656 237.335938 C 42.761719 237.953125 42.46875 238.582031 42.210938 239.210938 C 41.992188 239.238281 41.789062 239.261719 41.582031 239.289062 C 41.363281 239.3125 41.144531 239.351562 40.941406 239.378906 C 41.019531 238.96875 41.09375 238.558594 41.160156 238.144531 C 41.222656 237.632812 41.273438 237.121094 41.289062 236.59375 C 41.3125 236.078125 41.300781 235.539062 41.234375 234.988281 C 40.863281 235.414062 40.570312 235.847656 40.300781 236.296875 C 40.015625 236.734375 39.773438 237.183594 39.542969 237.644531 C 39.222656 238.339844 38.925781 239.019531 38.683594 239.738281 C 38.554688 239.761719 38.425781 239.789062 38.296875 239.816406 C 37.898438 239.878906 37.5 239.957031 37.117188 240.03125 C 37.101562 240.03125 37.101562 240.03125 37.101562 240.046875 C 37.128906 239.726562 37.167969 239.390625 37.179688 239.058594 C 37.207031 238.558594 37.21875 238.03125 37.191406 237.515625 C 37.167969 236.992188 37.117188 236.464844 37 235.925781 C 36.667969 236.363281 36.410156 236.824219 36.179688 237.300781 C 35.9375 237.761719 35.730469 238.234375 35.539062 238.710938 C 35.308594 239.3125 35.101562 239.929688 34.933594 240.546875 C 34.601562 240.636719 34.265625 240.726562 33.933594 240.816406 C 33.691406 240.878906 33.457031 240.945312 33.214844 241.019531 C 33.277344 240.570312 33.316406 240.109375 33.34375 239.660156 C 33.367188 239.148438 33.382812 238.632812 33.355469 238.121094 C 33.332031 237.59375 33.277344 237.066406 33.164062 236.527344 C 32.828125 236.964844 32.574219 237.425781 32.328125 237.890625 C 32.097656 238.363281 31.894531 238.828125 31.699219 239.3125 C 31.390625 240.109375 31.136719 240.917969 30.929688 241.753906 C 30.851562 241.777344 30.789062 241.804688 30.710938 241.828125 C 30.378906 241.945312 30.058594 242.074219 29.75 242.1875 C 29.648438 242.226562 29.53125 242.265625 29.429688 242.304688 C 29.414062 241.894531 29.402344 241.46875 29.363281 241.058594 C 29.3125 240.558594 29.25 240.046875 29.144531 239.53125 C 29.042969 239.019531 28.914062 238.503906 28.722656 237.980469 C 28.464844 238.46875 28.273438 238.96875 28.105469 239.457031 C 27.941406 239.957031 27.796875 240.457031 27.683594 240.957031 C 27.515625 241.6875 27.402344 242.433594 27.324219 243.175781 C 27.105469 243.28125 26.886719 243.371094 26.683594 243.472656 C 26.554688 243.523438 26.425781 243.574219 26.296875 243.640625 C 26.285156 243.304688 26.269531 242.960938 26.234375 242.625 C 26.195312 242.113281 26.117188 241.613281 26.015625 241.085938 C 25.910156 240.585938 25.796875 240.058594 25.605469 239.546875 C 25.335938 240.03125 25.15625 240.535156 24.976562 241.019531 C 24.808594 241.523438 24.679688 242.023438 24.5625 242.511719 C 24.398438 243.253906 24.28125 243.972656 24.191406 244.71875 C 24.089844 244.769531 23.988281 244.832031 23.871094 244.898438 C 23.703125 244.988281 23.539062 245.078125 23.371094 245.167969 C 17.773438 236.144531 15.632812 225.464844 17.339844 214.953125 C 18.507812 207.765625 21.417969 201.066406 25.746094 195.394531 C 26.886719 194.097656 28.222656 192.546875 29.519531 191.082031 C 30.558594 190.03125 31.660156 189.015625 32.816406 188.066406 C 32.945312 188.207031 33.074219 188.335938 33.214844 188.476562 C 33.253906 188.515625 33.277344 188.554688 33.332031 188.605469 C 33.175781 189.324219 33.046875 190.054688 32.972656 190.800781 C 32.933594 191.3125 32.894531 191.828125 32.90625 192.351562 C 32.90625 192.867188 32.933594 193.40625 33.023438 193.945312 C 33.367188 193.519531 33.652344 193.070312 33.90625 192.609375 C 34.164062 192.160156 34.394531 191.699219 34.601562 191.222656 C 34.742188 190.914062 34.859375 190.609375 34.984375 190.285156 C 35.128906 190.429688 35.28125 190.570312 35.421875 190.710938 C 35.550781 190.824219 35.667969 190.941406 35.792969 191.058594 C 35.640625 191.789062 35.523438 192.53125 35.449219 193.277344 C 35.398438 193.789062 35.371094 194.304688 35.371094 194.832031 C 35.371094 195.34375 35.398438 195.871094 35.488281 196.421875 C 35.832031 196 36.117188 195.535156 36.371094 195.085938 C 36.628906 194.636719 36.859375 194.175781 37.078125 193.699219 C 37.230469 193.328125 37.386719 192.945312 37.527344 192.558594 C 37.65625 192.660156 37.785156 192.765625 37.910156 192.855469 C 38.167969 193.070312 38.4375 193.289062 38.71875 193.507812 C 38.734375 193.519531 38.757812 193.546875 38.785156 193.558594 C 38.707031 194.40625 38.695312 195.253906 38.734375 196.113281 C 38.757812 196.628906 38.808594 197.128906 38.886719 197.652344 C 38.964844 198.167969 39.066406 198.695312 39.234375 199.21875 C 39.515625 198.746094 39.734375 198.257812 39.914062 197.769531 C 40.105469 197.28125 40.261719 196.78125 40.402344 196.292969 C 40.515625 195.855469 40.621094 195.421875 40.710938 194.984375 C 40.941406 195.136719 41.199219 195.304688 41.429688 195.460938 C 41.683594 195.640625 41.929688 195.804688 42.1875 195.972656 C 42.160156 196.613281 42.148438 197.257812 42.1875 197.898438 C 42.210938 198.410156 42.25 198.925781 42.339844 199.4375 C 42.417969 199.949219 42.519531 200.476562 42.6875 201.003906 C 42.96875 200.527344 43.175781 200.039062 43.367188 199.554688 C 43.558594 199.066406 43.714844 198.566406 43.855469 198.078125 C 43.929688 197.769531 44.007812 197.449219 44.085938 197.140625 C 44.125 197.152344 44.164062 197.179688 44.199219 197.203125 C 44.546875 197.398438 44.894531 197.589844 45.242188 197.78125 C 45.316406 197.832031 45.40625 197.886719 45.484375 197.921875 C 45.496094 198.679688 45.546875 199.425781 45.652344 200.167969 C 45.714844 200.667969 45.804688 201.183594 45.921875 201.695312 C 46.050781 202.195312 46.191406 202.710938 46.410156 203.222656 C 46.652344 202.722656 46.820312 202.222656 46.972656 201.722656 C 47.113281 201.222656 47.230469 200.722656 47.332031 200.207031 C 47.410156 199.796875 47.460938 199.386719 47.511719 198.976562 C 47.742188 199.089844 47.960938 199.207031 48.179688 199.308594 C 48.347656 199.386719 48.511719 199.464844 48.667969 199.539062 C 48.71875 200.21875 48.796875 200.902344 48.910156 201.59375 C 49 202.09375 49.117188 202.59375 49.246094 203.09375 C 49.308594 203.289062 49.375 203.46875 49.425781 203.660156 C 44.777344 211.414062 40.632812 219.84375 37.089844 229.019531 C 41.453125 218.996094 46.445312 209.859375 51.925781 201.542969 C 51.980469 201.980469 52.03125 202.414062 52.105469 202.851562 C 52.195312 203.351562 52.300781 203.867188 52.441406 204.367188 C 52.59375 204.867188 52.75 205.367188 52.992188 205.878906 C 53.210938 205.367188 53.351562 204.867188 53.492188 204.351562 C 53.621094 203.851562 53.710938 203.339844 53.789062 202.839844 C 53.839844 202.441406 53.878906 202.042969 53.917969 201.65625 C 54.121094 201.734375 54.339844 201.8125 54.546875 201.875 C 54.96875 202.015625 55.390625 202.144531 55.816406 202.273438 C 55.929688 202.3125 56.058594 202.351562 56.175781 202.390625 C 56.289062 203.058594 56.417969 203.722656 56.597656 204.40625 C 56.726562 204.890625 56.882812 205.378906 57.0625 205.867188 C 57.253906 206.355469 57.457031 206.84375 57.742188 207.332031 C 57.90625 206.804688 58.023438 206.292969 58.101562 205.765625 C 58.191406 205.25 58.230469 204.738281 58.265625 204.226562 C 58.292969 203.8125 58.292969 203.402344 58.292969 202.980469 C 58.535156 203.042969 58.769531 203.109375 59.011719 203.171875 C 59.242188 203.238281 59.472656 203.273438 59.691406 203.328125 C 60.027344 204.210938 60.410156 205.070312 60.871094 205.894531 C 61.117188 206.34375 61.386719 206.777344 61.679688 207.214844 C 61.976562 207.640625 62.296875 208.0625 62.683594 208.472656 C 62.722656 207.921875 62.695312 207.382812 62.65625 206.867188 C 62.617188 206.34375 62.542969 205.84375 62.453125 205.328125 C 62.347656 204.828125 62.246094 204.328125 62.105469 203.839844 C 62.605469 203.929688 63.105469 204.03125 63.621094 204.109375 C 63.671875 204.121094 63.722656 204.136719 63.785156 204.136719 C 64.210938 204.90625 64.671875 205.648438 65.199219 206.355469 C 65.507812 206.765625 65.828125 207.175781 66.1875 207.5625 C 66.53125 207.945312 66.90625 208.320312 67.339844 208.664062 C 67.316406 208.113281 67.214844 207.585938 67.109375 207.085938 C 66.996094 206.574219 66.855469 206.074219 66.6875 205.585938 C 66.570312 205.214844 66.429688 204.839844 66.277344 204.480469 C 66.429688 204.496094 66.570312 204.507812 66.726562 204.519531 C 66.839844 204.53125 66.957031 204.546875 67.070312 204.558594 C 67.457031 205.238281 67.878906 205.878906 68.34375 206.507812 C 68.648438 206.921875 68.972656 207.332031 69.316406 207.714844 C 69.675781 208.101562 70.050781 208.472656 70.484375 208.820312 C 70.445312 208.253906 70.355469 207.742188 70.242188 207.226562 C 70.125 206.726562 69.984375 206.226562 69.832031 205.738281 C 69.714844 205.40625 69.601562 205.085938 69.472656 204.75 C 69.78125 204.777344 70.085938 204.800781 70.394531 204.816406 C 70.832031 205.484375 71.292969 206.136719 71.820312 206.753906 C 72.152344 207.152344 72.488281 207.523438 72.859375 207.894531 C 73.246094 208.253906 73.628906 208.613281 74.09375 208.933594 C 74.027344 208.382812 73.898438 207.855469 73.757812 207.355469 C 73.617188 206.855469 73.449219 206.367188 73.257812 205.894531 C 73.117188 205.546875 72.976562 205.199219 72.808594 204.867188 C 72.847656 204.867188 72.886719 204.867188 72.925781 204.867188 C 73.21875 204.867188 73.515625 204.855469 73.824219 204.855469 C 74.273438 205.417969 74.734375 205.984375 75.246094 206.507812 C 75.605469 206.867188 75.980469 207.214844 76.390625 207.550781 C 76.789062 207.882812 77.210938 208.203125 77.6875 208.484375 C 77.582031 207.945312 77.417969 207.433594 77.238281 206.945312 C 77.058594 206.457031 76.839844 205.984375 76.621094 205.519531 C 76.492188 205.265625 76.339844 205.019531 76.195312 204.765625 C 76.222656 204.765625 76.25 204.765625 76.261719 204.765625 C 76.519531 204.738281 76.773438 204.738281 77.03125 204.710938 C 77.519531 205.316406 78.03125 205.894531 78.585938 206.433594 C 78.957031 206.792969 79.339844 207.136719 79.753906 207.460938 C 80.175781 207.78125 80.597656 208.089844 81.085938 208.359375 C 80.957031 207.804688 80.777344 207.316406 80.585938 206.832031 C 80.394531 206.34375 80.175781 205.878906 79.933594 205.429688 C 79.765625 205.109375 79.585938 204.800781 79.394531 204.496094 C 79.519531 204.480469 79.648438 204.46875 79.777344 204.457031 C 79.957031 204.429688 80.148438 204.40625 80.34375 204.378906 C 80.765625 204.890625 81.214844 205.394531 81.703125 205.867188 C 82.074219 206.214844 82.460938 206.5625 82.871094 206.882812 C 83.28125 207.203125 83.707031 207.511719 84.191406 207.78125 C 84.078125 207.242188 83.898438 206.742188 83.707031 206.253906 C 83.5 205.765625 83.28125 205.304688 83.050781 204.855469 C 82.898438 204.570312 82.730469 204.300781 82.574219 204.03125 C 82.730469 204.007812 82.882812 203.96875 83.050781 203.941406 C 83.371094 203.878906 83.707031 203.828125 84.039062 203.75 C 84.566406 204.289062 85.128906 204.789062 85.734375 205.265625 C 86.128906 205.574219 86.554688 205.878906 86.992188 206.164062 C 87.441406 206.433594 87.902344 206.703125 88.414062 206.921875 C 88.234375 206.382812 88.003906 205.917969 87.761719 205.445312 C 87.515625 204.980469 87.246094 204.546875 86.964844 204.121094 C 86.757812 203.8125 86.527344 203.519531 86.308594 203.238281 C 86.335938 203.238281 86.363281 203.222656 86.375 203.222656 C 86.695312 203.132812 86.992188 203.058594 87.296875 202.96875 C 87.875 203.46875 88.464844 203.929688 89.109375 204.367188 C 89.53125 204.648438 89.96875 204.917969 90.429688 205.160156 C 90.890625 205.40625 91.367188 205.636719 91.90625 205.804688 C 91.6875 205.304688 91.417969 204.839844 91.148438 204.40625 C 90.867188 203.957031 90.558594 203.53125 90.25 203.132812 C 90.03125 202.839844 89.789062 202.570312 89.542969 202.300781 C 89.890625 202.183594 90.25 202.070312 90.597656 201.953125 C 90.675781 201.914062 90.777344 201.890625 90.867188 201.863281 C 91.558594 202.363281 92.292969 202.839844 93.0625 203.25 C 93.511719 203.480469 93.972656 203.710938 94.460938 203.917969 C 94.933594 204.109375 95.4375 204.289062 95.976562 204.417969 C 95.71875 203.929688 95.410156 203.492188 95.089844 203.082031 C 94.769531 202.671875 94.421875 202.285156 94.074219 201.914062 C 93.765625 201.59375 93.445312 201.285156 93.125 200.992188 C 93.28125 200.925781 93.421875 200.847656 93.574219 200.785156 C 93.871094 200.65625 94.152344 200.542969 94.449219 200.398438 C 95.078125 200.847656 95.730469 201.261719 96.410156 201.632812 C 96.859375 201.875 97.324219 202.105469 97.808594 202.300781 C 98.296875 202.492188 98.785156 202.683594 99.324219 202.8125 C 99.066406 202.3125 98.761719 201.890625 98.4375 201.464844 C 98.117188 201.054688 97.785156 200.667969 97.425781 200.296875 C 97.128906 199.988281 96.820312 199.695312 96.5 199.398438 C 96.515625 199.398438 96.515625 199.398438 96.515625 199.398438 C 96.820312 199.246094 97.117188 199.089844 97.414062 198.925781 C 97.578125 198.835938 97.746094 198.746094 97.914062 198.65625 C 103.609375 207.714844 105.792969 218.472656 104.058594 229.074219 Z M 85.308594 258.398438 C 85.449219 258.089844 85.589844 257.769531 85.707031 257.460938 C 85.875 257.039062 86.015625 256.613281 86.144531 256.191406 C 86.335938 256.398438 86.542969 256.613281 86.734375 256.820312 C 86.835938 256.9375 86.9375 257.050781 87.042969 257.167969 C 86.476562 257.589844 85.898438 258 85.308594 258.398438 Z M 84.027344 257.078125 C 83.988281 257.628906 83.960938 258.167969 83.988281 258.71875 C 84 258.898438 84 259.066406 84.011719 259.234375 C 75.027344 264.867188 64.195312 267.085938 53.648438 265.367188 C 41.878906 263.457031 31.355469 256.78125 24.578125 247 C 24.707031 246.925781 24.847656 246.847656 24.976562 246.769531 C 24.988281 246.769531 24.988281 246.769531 24.988281 246.769531 C 25.730469 247.269531 26.515625 247.746094 27.335938 248.15625 C 27.824219 248.386719 28.324219 248.617188 28.839844 248.8125 C 29.363281 249.003906 29.890625 249.183594 30.46875 249.285156 C 30.171875 248.785156 29.828125 248.347656 29.46875 247.914062 C 29.109375 247.503906 28.722656 247.105469 28.324219 246.734375 C 27.941406 246.359375 27.527344 246 27.117188 245.667969 C 27.296875 245.578125 27.492188 245.488281 27.683594 245.398438 C 27.824219 245.332031 27.976562 245.269531 28.121094 245.207031 C 28.863281 245.71875 29.648438 246.179688 30.46875 246.589844 C 30.957031 246.824219 31.445312 247.054688 31.96875 247.246094 C 32.484375 247.4375 33.007812 247.617188 33.585938 247.71875 C 33.292969 247.21875 32.945312 246.785156 32.585938 246.359375 C 32.226562 245.9375 31.855469 245.539062 31.457031 245.167969 C 31.121094 244.847656 30.777344 244.550781 30.417969 244.253906 C 30.480469 244.242188 30.53125 244.21875 30.582031 244.191406 C 30.890625 244.074219 31.210938 243.960938 31.519531 243.84375 C 31.585938 243.832031 31.660156 243.804688 31.726562 243.78125 C 32.316406 244.320312 32.945312 244.820312 33.613281 245.296875 C 34.0625 245.601562 34.523438 245.898438 35 246.167969 C 35.5 246.425781 35.988281 246.679688 36.539062 246.875 C 36.320312 246.335938 36.050781 245.847656 35.757812 245.371094 C 35.460938 244.910156 35.140625 244.460938 34.804688 244.039062 C 34.550781 243.703125 34.265625 243.371094 33.996094 243.0625 C 34.191406 243.011719 34.382812 242.945312 34.589844 242.894531 C 34.753906 242.84375 34.921875 242.804688 35.101562 242.753906 C 35.832031 243.460938 36.617188 244.101562 37.449219 244.691406 C 37.898438 245 38.359375 245.296875 38.847656 245.566406 C 39.335938 245.820312 39.824219 246.078125 40.390625 246.269531 C 40.15625 245.730469 39.886719 245.242188 39.59375 244.769531 C 39.296875 244.308594 38.976562 243.871094 38.644531 243.433594 C 38.296875 242.996094 37.9375 242.574219 37.566406 242.164062 C 37.589844 242.152344 37.617188 242.152344 37.65625 242.136719 C 38.015625 242.074219 38.386719 241.996094 38.757812 241.933594 C 38.847656 241.90625 38.925781 241.894531 39.003906 241.882812 C 39.605469 242.546875 40.261719 243.175781 40.980469 243.769531 C 41.390625 244.113281 41.828125 244.449219 42.289062 244.757812 C 42.75 245.050781 43.226562 245.347656 43.765625 245.589844 C 43.585938 245.027344 43.339844 244.523438 43.097656 244.023438 C 42.839844 243.535156 42.558594 243.074219 42.261719 242.613281 C 42.007812 242.226562 41.738281 241.867188 41.46875 241.496094 C 41.621094 241.484375 41.761719 241.457031 41.917969 241.445312 C 42.03125 241.433594 42.132812 241.417969 42.25 241.40625 C 42.867188 242.152344 43.535156 242.855469 44.265625 243.511719 C 44.664062 243.871094 45.085938 244.21875 45.523438 244.550781 C 45.972656 244.871094 46.445312 245.179688 46.972656 245.449219 C 46.820312 244.882812 46.601562 244.359375 46.371094 243.859375 C 46.140625 243.355469 45.871094 242.882812 45.601562 242.421875 C 45.34375 241.984375 45.0625 241.574219 44.777344 241.175781 C 44.957031 241.164062 45.125 241.148438 45.292969 241.136719 C 45.394531 241.136719 45.496094 241.125 45.601562 241.125 C 46.242188 241.894531 46.933594 242.636719 47.691406 243.320312 C 48.089844 243.691406 48.511719 244.039062 48.960938 244.359375 C 49.410156 244.679688 49.875 245 50.398438 245.257812 C 50.246094 244.691406 50.027344 244.164062 49.796875 243.664062 C 49.566406 243.164062 49.308594 242.691406 49.027344 242.226562 C 48.78125 241.816406 48.527344 241.433594 48.257812 241.046875 C 48.347656 241.046875 48.421875 241.035156 48.511719 241.035156 C 48.9375 241.035156 49.359375 241.046875 49.785156 241.058594 C 49.875 241.058594 49.964844 241.058594 50.054688 241.058594 C 50.617188 241.867188 51.222656 242.636719 51.890625 243.355469 C 52.261719 243.753906 52.644531 244.140625 53.070312 244.511719 C 53.492188 244.871094 53.917969 245.21875 54.429688 245.527344 C 54.328125 244.949219 54.148438 244.410156 53.96875 243.894531 C 53.773438 243.371094 53.558594 242.871094 53.3125 242.382812 C 53.121094 241.984375 52.914062 241.585938 52.683594 241.199219 C 52.785156 241.199219 52.890625 241.214844 52.992188 241.214844 C 53.3125 241.238281 53.632812 241.277344 53.953125 241.316406 C 54.238281 241.984375 54.546875 242.625 54.90625 243.265625 C 55.175781 243.730469 55.457031 244.203125 55.777344 244.652344 C 56.097656 245.101562 56.433594 245.550781 56.84375 245.976562 C 56.882812 245.386719 56.84375 244.820312 56.792969 244.269531 C 56.726562 243.714844 56.636719 243.175781 56.523438 242.652344 C 56.445312 242.292969 56.355469 241.933594 56.265625 241.585938 C 56.675781 241.648438 57.074219 241.6875 57.484375 241.765625 C 57.523438 241.765625 57.574219 241.777344 57.613281 241.792969 C 57.804688 242.535156 58.035156 243.28125 58.332031 244.011719 C 58.523438 244.523438 58.742188 245.027344 59 245.511719 C 59.253906 246 59.539062 246.488281 59.882812 246.964844 C 60 246.386719 60.039062 245.820312 60.0625 245.269531 C 60.078125 244.71875 60.050781 244.179688 60.011719 243.640625 C 59.988281 243.152344 59.921875 242.675781 59.859375 242.203125 C 60.0625 242.242188 60.257812 242.292969 60.460938 242.332031 C 60.488281 242.34375 60.527344 242.355469 60.566406 242.355469 C 60.769531 243.214844 61.027344 244.050781 61.347656 244.871094 C 61.554688 245.371094 61.769531 245.871094 62.027344 246.375 C 62.285156 246.859375 62.554688 247.347656 62.914062 247.808594 C 63.027344 247.234375 63.066406 246.679688 63.082031 246.128906 C 63.105469 245.566406 63.082031 245.027344 63.042969 244.488281 C 63.003906 243.960938 62.9375 243.433594 62.863281 242.921875 C 63.15625 242.996094 63.453125 243.074219 63.746094 243.164062 C 63.914062 243.984375 64.105469 244.820312 64.375 245.628906 C 64.542969 246.15625 64.734375 246.65625 64.953125 247.167969 C 65.183594 247.667969 65.429688 248.167969 65.761719 248.65625 C 65.902344 248.09375 65.980469 247.539062 66.03125 246.988281 C 66.082031 246.4375 66.097656 245.886719 66.082031 245.347656 C 66.070312 244.847656 66.046875 244.34375 66.007812 243.84375 C 66.070312 243.871094 66.148438 243.894531 66.226562 243.921875 C 66.367188 243.960938 66.496094 244.011719 66.636719 244.0625 C 66.726562 244.972656 66.867188 245.871094 67.085938 246.769531 C 67.214844 247.296875 67.355469 247.824219 67.535156 248.347656 C 67.726562 248.863281 67.933594 249.390625 68.214844 249.902344 C 68.40625 249.351562 68.523438 248.796875 68.625 248.257812 C 68.714844 247.707031 68.765625 247.167969 68.804688 246.628906 C 68.84375 246.039062 68.855469 245.449219 68.84375 244.871094 C 68.972656 244.921875 69.113281 244.988281 69.253906 245.039062 C 69.40625 245.101562 69.5625 245.167969 69.714844 245.230469 C 69.78125 246.105469 69.894531 246.964844 70.085938 247.824219 C 70.191406 248.363281 70.332031 248.886719 70.5 249.414062 C 70.679688 249.941406 70.859375 250.46875 71.140625 250.980469 C 71.34375 250.441406 71.472656 249.890625 71.578125 249.351562 C 71.691406 248.8125 71.757812 248.257812 71.808594 247.734375 C 71.859375 247.207031 71.882812 246.695312 71.882812 246.179688 C 72.039062 246.246094 72.207031 246.320312 72.359375 246.386719 C 72.398438 246.410156 72.421875 246.425781 72.460938 246.449219 C 72.527344 247.414062 72.640625 248.386719 72.847656 249.351562 C 72.960938 249.890625 73.105469 250.414062 73.269531 250.941406 C 73.4375 251.46875 73.628906 251.996094 73.898438 252.519531 C 74.117188 251.96875 74.246094 251.429688 74.347656 250.878906 C 74.464844 250.339844 74.527344 249.800781 74.578125 249.261719 C 74.632812 248.695312 74.65625 248.132812 74.65625 247.566406 C 74.835938 247.65625 75.015625 247.757812 75.195312 247.847656 C 75.402344 247.976562 75.605469 248.09375 75.8125 248.207031 C 75.785156 249.09375 75.8125 249.992188 75.902344 250.878906 C 75.953125 251.417969 76.03125 251.957031 76.144531 252.507812 C 76.261719 253.046875 76.390625 253.585938 76.609375 254.136719 C 76.878906 253.613281 77.058594 253.085938 77.238281 252.558594 C 77.390625 252.019531 77.519531 251.492188 77.621094 250.96875 C 77.722656 250.46875 77.800781 249.953125 77.867188 249.453125 C 77.917969 249.480469 77.957031 249.503906 78.007812 249.53125 C 78.1875 249.644531 78.367188 249.773438 78.546875 249.890625 C 78.457031 250.773438 78.40625 251.660156 78.441406 252.558594 C 78.457031 253.109375 78.496094 253.648438 78.570312 254.203125 C 78.648438 254.753906 78.738281 255.292969 78.917969 255.859375 C 79.214844 255.355469 79.445312 254.84375 79.648438 254.332031 C 79.84375 253.804688 80.007812 253.289062 80.164062 252.765625 C 80.292969 252.277344 80.40625 251.761719 80.507812 251.261719 C 80.535156 251.277344 80.546875 251.300781 80.574219 251.3125 C 80.867188 251.53125 81.164062 251.75 81.445312 251.96875 C 81.523438 252.019531 81.585938 252.085938 81.652344 252.136719 C 81.511719 252.917969 81.40625 253.703125 81.355469 254.484375 C 81.316406 255.035156 81.292969 255.574219 81.316406 256.128906 C 81.34375 256.679688 81.382812 257.242188 81.496094 257.820312 C 81.855469 257.347656 82.125 256.859375 82.382812 256.371094 C 82.628906 255.871094 82.84375 255.371094 83.039062 254.855469 C 83.191406 254.457031 83.332031 254.046875 83.460938 253.636719 C 83.578125 253.738281 83.691406 253.84375 83.808594 253.945312 C 84 254.113281 84.191406 254.292969 84.371094 254.457031 C 84.207031 255.332031 84.078125 256.191406 84.027344 257.078125 Z M 51.273438 200.65625 C 51.027344 201.042969 50.785156 201.425781 50.554688 201.824219 C 50.566406 201.734375 50.578125 201.644531 50.59375 201.566406 C 50.644531 201.195312 50.683594 200.8125 50.722656 200.4375 C 50.902344 200.515625 51.082031 200.59375 51.273438 200.65625 Z M 53.890625 196.628906 C 53.414062 197.347656 52.941406 198.078125 52.464844 198.796875 C 52.402344 198.769531 52.351562 198.757812 52.300781 198.730469 C 52.105469 198.65625 51.914062 198.578125 51.722656 198.5 C 52.121094 198.207031 52.515625 197.898438 52.890625 197.5625 C 53.234375 197.269531 53.570312 196.960938 53.890625 196.628906 Z M 67.765625 178.644531 C 67.855469 178.660156 67.945312 178.683594 68.046875 178.699219 C 63.402344 183.753906 59 189.234375 54.890625 195.175781 C 54.402344 195.265625 53.953125 195.382812 53.503906 195.523438 C 52.980469 195.691406 52.464844 195.882812 51.980469 196.101562 C 51.066406 196.5 50.207031 196.960938 49.386719 197.472656 C 49.320312 197.4375 49.246094 197.410156 49.179688 197.371094 C 49.015625 197.292969 48.847656 197.21875 48.679688 197.128906 C 49.050781 196.871094 49.4375 196.613281 49.796875 196.320312 C 50.21875 195.984375 50.632812 195.640625 51.027344 195.253906 C 51.425781 194.855469 51.8125 194.457031 52.160156 193.984375 C 51.582031 194.035156 51.027344 194.164062 50.488281 194.304688 C 49.964844 194.445312 49.449219 194.625 48.9375 194.816406 C 48.078125 195.152344 47.253906 195.535156 46.460938 195.984375 C 46.433594 195.972656 46.410156 195.945312 46.382812 195.933594 C 46.050781 195.753906 45.703125 195.5625 45.367188 195.371094 C 45.304688 195.332031 45.253906 195.292969 45.1875 195.265625 C 45.675781 194.996094 46.152344 194.703125 46.625 194.394531 C 47.074219 194.097656 47.523438 193.777344 47.949219 193.417969 C 48.371094 193.070312 48.796875 192.699219 49.179688 192.25 C 48.589844 192.261719 48.039062 192.339844 47.488281 192.441406 C 46.949219 192.546875 46.421875 192.675781 45.894531 192.828125 C 44.90625 193.125 43.957031 193.496094 43.03125 193.917969 C 42.929688 193.855469 42.839844 193.789062 42.738281 193.726562 C 42.519531 193.585938 42.300781 193.429688 42.082031 193.277344 C 42.457031 193.070312 42.816406 192.839844 43.175781 192.609375 C 43.625 192.316406 44.074219 191.992188 44.496094 191.632812 C 44.917969 191.289062 45.34375 190.914062 45.726562 190.464844 C 45.136719 190.480469 44.585938 190.554688 44.035156 190.660156 C 43.496094 190.75 42.96875 190.890625 42.441406 191.042969 C 41.660156 191.273438 40.902344 191.558594 40.15625 191.878906 C 40.144531 191.867188 40.132812 191.851562 40.121094 191.839844 C 39.863281 191.648438 39.605469 191.441406 39.363281 191.238281 C 39.257812 191.160156 39.167969 191.09375 39.078125 191.003906 C 39.503906 190.851562 39.941406 190.671875 40.363281 190.480469 C 40.851562 190.25 41.339844 189.992188 41.8125 189.710938 C 42.277344 189.414062 42.75 189.105469 43.199219 188.722656 C 42.609375 188.65625 42.058594 188.65625 41.492188 188.667969 C 40.941406 188.683594 40.402344 188.734375 39.863281 188.8125 C 38.964844 188.9375 38.066406 189.132812 37.191406 189.375 C 37.128906 189.3125 37.050781 189.246094 36.976562 189.171875 C 36.78125 188.992188 36.589844 188.8125 36.398438 188.617188 C 36.898438 188.4375 37.398438 188.234375 37.886719 188.003906 C 38.375 187.769531 38.863281 187.515625 39.335938 187.230469 C 39.8125 186.949219 40.285156 186.640625 40.722656 186.257812 C 40.144531 186.179688 39.582031 186.179688 39.027344 186.191406 C 38.476562 186.207031 37.9375 186.257812 37.398438 186.332031 C 36.488281 186.460938 35.601562 186.65625 34.714844 186.910156 C 34.664062 186.847656 34.613281 186.78125 34.550781 186.71875 C 44.046875 179.6875 56.085938 176.746094 67.765625 178.644531 Z M 69.753906 179.019531 C 79.484375 181.070312 88.25 186.410156 94.574219 194.035156 C 94.539062 194.113281 94.511719 194.203125 94.472656 194.277344 C 94.28125 194.792969 94.125 195.316406 93.984375 195.84375 C 93.753906 196.703125 93.601562 197.578125 93.496094 198.449219 C 93.203125 198.578125 92.921875 198.707031 92.625 198.835938 C 92.535156 198.875 92.445312 198.910156 92.355469 198.9375 C 92.367188 198.515625 92.367188 198.078125 92.355469 197.640625 C 92.328125 197.089844 92.292969 196.550781 92.203125 196 C 92.113281 195.460938 92.023438 194.90625 91.828125 194.34375 C 91.535156 194.855469 91.316406 195.371094 91.125 195.882812 C 90.929688 196.410156 90.765625 196.921875 90.636719 197.449219 C 90.429688 198.21875 90.277344 199 90.171875 199.785156 C 90.046875 199.835938 89.917969 199.886719 89.789062 199.925781 C 89.46875 200.039062 89.132812 200.15625 88.8125 200.257812 C 88.878906 199.746094 88.929688 199.234375 88.953125 198.707031 C 88.980469 198.167969 88.992188 197.628906 88.96875 197.0625 C 88.929688 196.511719 88.890625 195.960938 88.761719 195.382812 C 88.414062 195.855469 88.144531 196.34375 87.902344 196.84375 C 87.65625 197.347656 87.453125 197.847656 87.261719 198.359375 C 86.953125 199.207031 86.707031 200.066406 86.515625 200.9375 C 86.257812 201.003906 86.015625 201.066406 85.757812 201.132812 C 85.746094 201.132812 85.746094 201.144531 85.734375 201.144531 C 85.835938 200.632812 85.925781 200.128906 85.976562 199.617188 C 86.054688 199.078125 86.105469 198.539062 86.117188 197.976562 C 86.117188 197.4375 86.117188 196.871094 86.027344 196.28125 C 85.644531 196.730469 85.347656 197.21875 85.066406 197.691406 C 84.78125 198.167969 84.539062 198.65625 84.320312 199.144531 C 83.949219 199.976562 83.640625 200.8125 83.382812 201.671875 C 83.101562 201.722656 82.832031 201.773438 82.550781 201.824219 C 82.394531 201.851562 82.242188 201.875 82.089844 201.902344 C 82.269531 201.375 82.421875 200.824219 82.550781 200.273438 C 82.679688 199.746094 82.78125 199.207031 82.859375 198.65625 C 82.921875 198.101562 82.972656 197.550781 82.949219 196.960938 C 82.523438 197.371094 82.179688 197.808594 81.84375 198.257812 C 81.511719 198.707031 81.226562 199.15625 80.945312 199.628906 C 80.445312 200.476562 80.023438 201.363281 79.648438 202.273438 C 79.585938 202.285156 79.507812 202.300781 79.445312 202.300781 C 79.304688 202.324219 79.160156 202.324219 79.019531 202.351562 C 79.175781 201.851562 79.316406 201.351562 79.445312 200.835938 C 79.558594 200.308594 79.664062 199.769531 79.738281 199.234375 C 79.804688 198.679688 79.855469 198.128906 79.828125 197.539062 C 79.40625 197.9375 79.058594 198.386719 78.726562 198.820312 C 78.40625 199.269531 78.109375 199.734375 77.839844 200.195312 C 77.378906 200.964844 76.992188 201.746094 76.660156 202.554688 C 76.453125 202.582031 76.261719 202.59375 76.054688 202.59375 C 75.941406 202.609375 75.824219 202.609375 75.710938 202.621094 C 75.914062 202.070312 76.09375 201.503906 76.234375 200.9375 C 76.375 200.414062 76.492188 199.875 76.582031 199.335938 C 76.660156 198.785156 76.722656 198.21875 76.722656 197.640625 C 76.285156 198.039062 75.925781 198.460938 75.582031 198.898438 C 75.246094 199.335938 74.9375 199.785156 74.65625 200.246094 C 74.167969 201.027344 73.746094 201.851562 73.375 202.683594 C 73.207031 202.683594 73.039062 202.699219 72.871094 202.699219 C 72.820312 202.699219 72.757812 202.683594 72.691406 202.683594 C 72.898438 202.234375 73.089844 201.761719 73.257812 201.285156 C 73.4375 200.773438 73.589844 200.246094 73.71875 199.71875 C 73.847656 199.167969 73.964844 198.617188 74.003906 198.039062 C 73.539062 198.398438 73.140625 198.796875 72.769531 199.207031 C 72.398438 199.605469 72.050781 200.039062 71.730469 200.476562 C 71.21875 201.171875 70.753906 201.890625 70.34375 202.632812 C 70.035156 202.621094 69.726562 202.59375 69.421875 202.582031 C 69.664062 202.105469 69.894531 201.632812 70.101562 201.132812 C 70.304688 200.632812 70.5 200.128906 70.652344 199.589844 C 70.804688 199.066406 70.960938 198.527344 71.023438 197.9375 C 70.550781 198.269531 70.125 198.65625 69.726562 199.027344 C 69.332031 199.410156 68.972656 199.824219 68.625 200.234375 C 68.046875 200.925781 67.535156 201.632812 67.070312 202.375 C 67.019531 202.375 66.980469 202.375 66.945312 202.363281 C 66.738281 202.351562 66.546875 202.324219 66.339844 202.300781 C 66.558594 201.875 66.777344 201.425781 66.957031 200.992188 C 67.160156 200.476562 67.355469 199.976562 67.519531 199.4375 C 67.675781 198.910156 67.816406 198.371094 67.894531 197.78125 C 67.40625 198.117188 66.996094 198.5 66.597656 198.886719 C 66.199219 199.269531 65.828125 199.667969 65.480469 200.09375 C 64.96875 200.695312 64.503906 201.335938 64.082031 201.992188 C 64.042969 201.980469 64.003906 201.980469 63.964844 201.980469 C 63.554688 201.902344 63.144531 201.824219 62.746094 201.746094 C 62.953125 201.441406 63.144531 201.132812 63.335938 200.8125 C 63.605469 200.335938 63.863281 199.859375 64.105469 199.359375 C 64.324219 198.847656 64.542969 198.335938 64.683594 197.769531 C 64.171875 198.027344 63.710938 198.347656 63.261719 198.667969 C 62.8125 199 62.386719 199.347656 61.988281 199.71875 C 61.449219 200.207031 60.949219 200.734375 60.476562 201.273438 C 60.167969 201.207031 59.859375 201.144531 59.550781 201.066406 C 59.449219 201.042969 59.332031 201.003906 59.230469 200.976562 C 59.5625 200.683594 59.898438 200.375 60.207031 200.039062 C 60.589844 199.65625 60.949219 199.257812 61.296875 198.820312 C 61.644531 198.386719 61.976562 197.9375 62.257812 197.421875 C 61.679688 197.550781 61.15625 197.742188 60.640625 197.949219 C 60.128906 198.167969 59.640625 198.410156 59.164062 198.667969 C 58.292969 199.144531 57.472656 199.679688 56.6875 200.273438 C 56.625 200.246094 56.558594 200.234375 56.507812 200.21875 C 56.097656 200.09375 55.6875 199.964844 55.277344 199.835938 C 55.175781 199.796875 55.070312 199.757812 54.96875 199.71875 C 55.355469 199.4375 55.726562 199.15625 56.085938 198.835938 C 56.496094 198.488281 56.894531 198.117188 57.277344 197.71875 C 57.652344 197.308594 58.023438 196.882812 58.355469 196.394531 C 57.765625 196.472656 57.226562 196.628906 56.703125 196.792969 C 56.175781 196.960938 55.660156 197.152344 55.160156 197.371094 C 54.957031 197.460938 54.761719 197.5625 54.558594 197.667969 C 59.292969 190.890625 64.390625 184.691406 69.753906 179.019531 Z M 96.695312 196.832031 C 96.566406 196.910156 96.425781 196.988281 96.296875 197.0625 C 96.101562 197.167969 95.910156 197.269531 95.71875 197.359375 C 95.730469 196.921875 95.730469 196.472656 95.707031 196.023438 C 95.691406 195.832031 95.679688 195.625 95.667969 195.421875 C 96.011719 195.882812 96.359375 196.359375 96.695312 196.832031 Z M 99.785156 197.539062 L 99.171875 196.601562 L 98.59375 195.730469 L 98.582031 195.730469 C 92.136719 186.4375 82.433594 179.839844 71.5 177.195312 C 71.550781 177.15625 71.589844 177.117188 71.628906 177.066406 C 78.40625 170.1875 85.589844 164.066406 93.085938 158.777344 C 100.582031 153.453125 108.371094 148.910156 116.34375 145.085938 C 124.300781 141.222656 132.449219 138.089844 140.675781 135.613281 C 148.902344 133.109375 157.183594 131.300781 165.460938 130.054688 C 182.003906 127.589844 198.429688 127.515625 214.113281 129.453125 C 198.6875 127.21875 182.335938 126.960938 165.769531 129.144531 C 157.488281 130.222656 149.148438 131.941406 140.84375 134.289062 C 132.566406 136.675781 124.324219 139.71875 116.238281 143.480469 C 108.167969 147.277344 100.273438 151.796875 92.664062 157.109375 C 85.078125 162.460938 77.777344 168.570312 70.949219 175.617188 C 70.5625 176.003906 70.191406 176.414062 69.804688 176.824219 C 69.242188 176.707031 68.675781 176.59375 68.113281 176.503906 C 57.703125 174.808594 47.023438 176.773438 37.9375 181.917969 C 73.15625 140.898438 116.148438 123.652344 158.363281 119.082031 C 202.101562 114.921875 244.996094 124.28125 281.019531 148.5625 C 243.890625 123.1875 195.789062 113.113281 148.699219 119.96875 C 106.074219 126.347656 64.285156 146.597656 32.703125 185.382812 L 32.277344 185.703125 L 31.390625 186.410156 L 31.40625 186.421875 C 22.742188 193.558594 17.003906 203.507812 15.195312 214.59375 C 13.398438 225.621094 15.65625 236.824219 21.507812 246.285156 L 21.496094 246.296875 L 22.113281 247.234375 L 22.675781 248.105469 L 22.691406 248.105469 C 29.800781 258.449219 40.902344 265.496094 53.300781 267.523438 C 65.699219 269.539062 78.457031 266.355469 88.464844 258.808594 L 88.480469 258.824219 L 89.300781 258.167969 L 90.1875 257.476562 L 90.171875 257.449219 C 98.734375 250.339844 104.417969 240.429688 106.214844 229.417969 C 108.011719 218.316406 105.730469 207.046875 99.785156 197.550781 L 99.785156 197.539062 " fill-opacity="1" fill-rule="nonzero"/><path fill="#fca311" d="M 102.777344 145.570312 C 139.34375 125.203125 179.550781 120.722656 214.5 126 C 176.40625 119.929688 132.320312 125.191406 93.125 148.871094 C 96.386719 147.664062 99.605469 146.558594 102.777344 145.570312 " fill-opacity="1" fill-rule="nonzero"/><path fill="#fca311" d="M 328.535156 207.125 C 331.933594 213.773438 334.746094 220.769531 336.941406 228.070312 C 334.757812 220.78125 331.949219 213.773438 328.535156 207.125 " fill-opacity="1" fill-rule="nonzero"/><path fill="#fca311" d="M 255.867188 143.429688 C 216.335938 128.089844 166.308594 127.550781 122.257812 149.320312 C 122.734375 149.871094 123.15625 150.4375 123.542969 151.027344 C 166.164062 128.988281 216.105469 128.71875 255.710938 143.800781 C 288.183594 156.03125 313.851562 178.390625 328.535156 207.125 C 313.839844 178.25 288.3125 155.953125 255.867188 143.429688 " fill-opacity="1" fill-rule="nonzero"/><path fill="#fca311" d="M 285.617188 162.332031 C 238.050781 131.492188 170.695312 130.863281 121.886719 162.21875 C 120.976562 163.449219 120.117188 164.707031 119.28125 165.964844 C 166.679688 131.761719 236.792969 130.800781 285.617188 162.332031 " fill-opacity="1" fill-rule="nonzero"/><path fill="#fca311" d="M 287.21875 163.398438 C 291.917969 166.53125 296.421875 169.96875 300.683594 173.71875 C 296.433594 169.96875 291.929688 166.53125 287.21875 163.398438 " fill-opacity="1" fill-rule="nonzero"/><path fill="#fca311" d="M 245.046875 149.921875 C 193.375 138.347656 141.933594 155.828125 112.851562 189.65625 C 112.363281 191.570312 112.019531 193.445312 111.785156 195.253906 C 138.1875 159.496094 189.652344 139.347656 242.339844 149.808594 C 277.53125 156.839844 313.3125 178.273438 331.28125 217.316406 C 313.773438 179.09375 279.363281 157.75 245.046875 149.921875 " fill-opacity="1" fill-rule="nonzero"/><g clip-path="url(#461ee73687)"><path fill="#fca311" d="M 343.011719 282.285156 C 343.933594 258.71875 340.175781 238.558594 333.128906 221.550781 C 340.136719 238.542969 343.882812 258.707031 343.011719 282.285156 " fill-opacity="1" fill-rule="nonzero"/></g><path fill="#fca311" d="M 154.679688 143.851562 C 161.929688 141.671875 169.308594 140.015625 176.730469 138.898438 C 184.199219 137.742188 191.730469 137.125 199.226562 137.011719 C 206.773438 136.894531 214.257812 137.304688 221.714844 138.21875 C 236.574219 140.027344 251.117188 143.890625 264.734375 149.769531 C 251.988281 144.042969 238.050781 139.988281 223.523438 137.882812 C 216.285156 136.820312 208.828125 136.253906 201.371094 136.191406 C 193.875 136.136719 186.328125 136.585938 178.796875 137.5625 C 171.25 138.578125 163.726562 140.117188 156.320312 142.210938 C 148.890625 144.328125 141.601562 146.972656 134.492188 150.269531 C 120.296875 156.828125 106.921875 165.761719 95.347656 177.375 C 106.882812 166.8125 119.757812 158.316406 133.503906 151.910156 C 140.355469 148.714844 147.464844 146.007812 154.679688 143.851562 " fill-opacity="1" fill-rule="nonzero"/><path fill="#fca311" d="M 158.722656 151.179688 C 165.332031 148.859375 172.148438 147.007812 179.117188 145.636719 C 186.125 144.25 193.285156 143.351562 200.511719 142.964844 C 207.789062 142.570312 215.089844 142.695312 222.46875 143.339844 C 237.164062 144.648438 251.914062 148.085938 265.941406 153.902344 C 252.644531 148.203125 238.4375 144.558594 224.035156 142.964844 C 216.847656 142.171875 209.570312 141.902344 202.371094 142.132812 C 195.144531 142.363281 187.972656 143.109375 180.914062 144.339844 C 173.828125 145.597656 166.882812 147.355469 160.148438 149.589844 C 153.371094 151.859375 146.851562 154.570312 140.546875 157.839844 C 127.996094 164.308594 116.546875 172.769531 106.882812 183.164062 C 116.523438 173.769531 127.535156 165.746094 139.703125 159.40625 C 145.757812 156.25 152.152344 153.464844 158.722656 151.179688 " fill-opacity="1" fill-rule="nonzero"/></svg>