<svg xmlns="http://www.w3.org/2000/svg" xmlns:xlink="http://www.w3.org/1999/xlink" width="500" zoomAndPan="magnify" viewBox="0 0 375 374.999991" height="500" preserveAspectRatio="xMidYMid meet" version="1.0"><defs><g/></defs><g fill="#14213d" fill-opacity="1"><g transform="translate(110.536974, 242.163469)"><g><path d="M 2.90625 -73.421875 L 17.21875 -75.671875 C 23.53125 -76.660156 27.300781 -74.570312 28.53125 -69.40625 C 29.3125 -66.15625 29.539062 -62.25 29.21875 -57.6875 C 28.90625 -53.132812 28.546875 -49.691406 28.140625 -47.359375 C 27.234375 -42.253906 25.6875 -38.382812 23.5 -35.75 C 21.3125 -33.125 18.15625 -31.488281 14.03125 -30.84375 L 8.078125 -29.90625 L 6.03125 -0.953125 L -2.34375 0.375 Z M 20.78125 -55.625 C 21.15625 -60.6875 21.03125 -64.21875 20.40625 -66.21875 C 19.789062 -68.21875 18.347656 -69.039062 16.078125 -68.6875 L 10.78125 -67.84375 L 8.609375 -37.140625 L 13.703125 -37.9375 C 16.066406 -38.3125 17.71875 -39.632812 18.65625 -41.90625 C 19.601562 -44.1875 20.289062 -48.285156 20.71875 -54.203125 Z M 20.78125 -55.625 "/></g></g><g transform="translate(146.54271, 236.507886)"><g><path d="M 2.90625 -73.421875 L 24.171875 -76.75 L 23.65625 -69.546875 L 10.75 -67.515625 L 8.953125 -42.28125 L 21.15625 -44.203125 L 20.6875 -37 L 8.46875 -35.078125 L 6.5625 -8.171875 L 19.625 -10.21875 L 19.109375 -3 L -2.34375 0.375 Z M 2.90625 -73.421875 "/></g></g><g transform="translate(177.734196, 231.608499)"><g><path d="M 2.90625 -73.421875 L 11.265625 -74.734375 L 6.515625 -8.109375 L 19.671875 -10.1875 L 19.1875 -3.015625 L -2.34375 0.375 Z M 2.90625 -73.421875 "/></g></g><g transform="translate(206.538785, 227.084032)"><g><path d="M 0.6875 -53.25 C 1.28125 -61.644531 3.144531 -67.628906 6.28125 -71.203125 C 8.726562 -74.023438 12.140625 -75.78125 16.515625 -76.46875 C 22.878906 -77.46875 26.753906 -75.394531 28.140625 -70.25 C 28.984375 -67.207031 29.21875 -63.015625 28.84375 -57.671875 L 26.484375 -25.140625 C 25.953125 -17.453125 24.519531 -11.691406 22.1875 -7.859375 C 19.851562 -4.035156 16.09375 -1.710938 10.90625 -0.890625 C 5.71875 -0.078125 2.191406 -1.265625 0.328125 -4.453125 C -1.535156 -7.640625 -2.203125 -13.0625 -1.671875 -20.71875 Z M 20.46875 -56.859375 C 20.800781 -61.585938 20.675781 -64.878906 20.09375 -66.734375 C 19.519531 -68.585938 18.125 -69.335938 15.90625 -68.984375 C 13.695312 -68.640625 12.085938 -67.394531 11.078125 -65.25 C 10.078125 -63.113281 9.410156 -59.734375 9.078125 -55.109375 L 6.71875 -21.953125 C 6.332031 -16.328125 6.441406 -12.5625 7.046875 -10.65625 C 7.648438 -8.75 9.097656 -7.972656 11.390625 -8.328125 C 13.679688 -8.691406 15.273438 -9.957031 16.171875 -12.125 C 17.078125 -14.300781 17.726562 -18.171875 18.125 -23.734375 Z M 20.46875 -56.859375 "/></g></g><g transform="translate(244.729139, 221.085301)"><g><path d="M -1.84375 -72.671875 L 21.65625 -76.359375 L 21.125 -69.15625 L 13.8125 -68 L 9.109375 -1.4375 L 0.765625 -0.125 L 5.484375 -66.703125 L -2.359375 -65.46875 Z M -1.84375 -72.671875 "/></g></g><g transform="translate(270.499537, 217.037429)"><g><path d="M 3.53125 -73.515625 L 11.921875 -74.828125 L 6.6875 -1.046875 L -1.703125 0.265625 Z M 3.53125 -73.515625 "/></g></g><g transform="translate(291.819787, 213.688561)"><g><path d="M 0.578125 -52 C 0.972656 -57.59375 1.707031 -61.769531 2.78125 -64.53125 C 3.851562 -67.300781 4.972656 -69.382812 6.140625 -70.78125 C 8.609375 -73.820312 12.039062 -75.695312 16.4375 -76.40625 C 22.59375 -77.351562 26.359375 -75.171875 27.734375 -69.859375 C 28.523438 -66.796875 28.734375 -62.601562 28.359375 -57.28125 L 27.78125 -49.09375 L 19.5625 -47.8125 L 20.140625 -56.03125 C 20.484375 -60.75 20.46875 -63.898438 20.09375 -65.484375 C 19.71875 -67.066406 19.195312 -68.078125 18.53125 -68.515625 C 17.863281 -68.953125 16.992188 -69.082031 15.921875 -68.90625 C 13.671875 -68.5625 12.035156 -67.222656 11.015625 -64.890625 C 10.003906 -62.554688 9.335938 -59.03125 9.015625 -54.3125 L 6.765625 -22.375 C 6.347656 -16.78125 6.445312 -12.929688 7.0625 -10.828125 C 7.6875 -8.722656 9.097656 -7.84375 11.296875 -8.1875 C 13.503906 -8.539062 15.054688 -9.894531 15.953125 -12.25 C 16.859375 -14.601562 17.503906 -18.578125 17.890625 -24.171875 L 18.46875 -32.328125 L 26.75 -33.625 L 26.1875 -25.546875 C 25.625 -17.796875 24.195312 -11.9375 21.90625 -7.96875 C 19.625 -4.007812 15.945312 -1.628906 10.875 -0.828125 C 5.800781 -0.0351562 2.316406 -1.347656 0.421875 -4.765625 C -1.472656 -8.179688 -2.144531 -13.679688 -1.59375 -21.265625 Z M 0.578125 -52 "/></g></g><g transform="translate(328.958288, 207.855049)"><g><path d="M 10.546875 -74.609375 L 20.625 -76.203125 L 27.15625 -4.265625 L 19.265625 -3.03125 L 18.21875 -16.796875 L 5.3125 -14.765625 L 2.46875 -0.390625 L -5.5 0.859375 Z M 6.75 -21.953125 L 17.6875 -23.671875 L 14.84375 -61.78125 L 14.71875 -61.765625 Z M 6.75 -21.953125 "/></g></g></g><path fill="#fca311" d="M 104.285156 219.765625 C 102.53125 230.550781 96.976562 240.242188 88.589844 247.207031 C 88.457031 247.050781 88.324219 246.917969 88.195312 246.773438 C 87.957031 246.523438 87.71875 246.273438 87.484375 246.023438 C 87.429688 245.96875 87.390625 245.917969 87.335938 245.863281 C 87.734375 245.679688 88.128906 245.496094 88.523438 245.285156 C 88.984375 245.035156 89.445312 244.773438 89.890625 244.46875 C 90.339844 244.179688 90.773438 243.851562 91.183594 243.46875 C 90.617188 243.414062 90.078125 243.429688 89.535156 243.457031 C 89.011719 243.496094 88.484375 243.574219 87.96875 243.652344 C 87.179688 243.796875 86.402344 243.980469 85.640625 244.207031 C 85.453125 244.019531 85.257812 243.851562 85.058594 243.679688 C 84.890625 243.519531 84.71875 243.375 84.546875 243.21875 C 84.96875 243.035156 85.375 242.835938 85.785156 242.625 C 86.246094 242.375 86.707031 242.113281 87.152344 241.808594 C 87.601562 241.519531 88.035156 241.191406 88.445312 240.808594 C 87.878906 240.753906 87.335938 240.769531 86.8125 240.808594 C 86.269531 240.835938 85.746094 240.902344 85.230469 240.992188 C 84.335938 241.152344 83.464844 241.363281 82.625 241.625 C 82.597656 241.613281 82.558594 241.585938 82.542969 241.570312 C 82.230469 241.320312 81.898438 241.085938 81.582031 240.847656 C 81.558594 240.820312 81.53125 240.808594 81.503906 240.78125 C 81.820312 240.597656 82.148438 240.398438 82.464844 240.203125 C 82.902344 239.898438 83.320312 239.597656 83.742188 239.253906 C 84.152344 238.914062 84.558594 238.558594 84.941406 238.121094 C 84.363281 238.121094 83.820312 238.1875 83.296875 238.28125 C 82.769531 238.371094 82.253906 238.492188 81.742188 238.621094 C 80.992188 238.832031 80.242188 239.097656 79.515625 239.386719 C 79.292969 239.226562 79.070312 239.082031 78.84375 238.9375 C 78.777344 238.898438 78.726562 238.859375 78.660156 238.820312 C 78.976562 238.609375 79.28125 238.386719 79.582031 238.160156 C 79.992188 237.832031 80.398438 237.503906 80.792969 237.121094 C 81.175781 236.753906 81.558594 236.371094 81.898438 235.910156 C 81.332031 235.960938 80.808594 236.066406 80.28125 236.1875 C 79.753906 236.316406 79.253906 236.476562 78.753906 236.648438 C 78.015625 236.910156 77.292969 237.214844 76.59375 237.554688 C 76.328125 237.410156 76.066406 237.265625 75.804688 237.121094 C 75.632812 237.03125 75.460938 236.925781 75.289062 236.832031 C 75.527344 236.621094 75.777344 236.398438 76.015625 236.171875 C 76.382812 235.816406 76.75 235.421875 77.105469 235.027344 C 77.449219 234.605469 77.792969 234.183594 78.082031 233.699219 C 77.515625 233.804688 77 233.960938 76.5 234.144531 C 75.988281 234.328125 75.5 234.539062 75.027344 234.765625 C 74.394531 235.054688 73.789062 235.398438 73.195312 235.765625 C 73.0625 235.6875 72.917969 235.621094 72.789062 235.554688 C 72.644531 235.488281 72.484375 235.421875 72.339844 235.34375 C 72.617188 235.105469 72.894531 234.855469 73.167969 234.605469 C 73.539062 234.238281 73.90625 233.867188 74.261719 233.460938 C 74.605469 233.039062 74.945312 232.617188 75.238281 232.132812 C 74.683594 232.238281 74.15625 232.394531 73.65625 232.578125 C 73.144531 232.75 72.667969 232.960938 72.183594 233.183594 C 71.457031 233.539062 70.761719 233.933594 70.089844 234.355469 C 69.878906 234.265625 69.652344 234.183594 69.441406 234.09375 C 69.402344 234.078125 69.351562 234.066406 69.3125 234.039062 C 69.535156 233.84375 69.757812 233.644531 69.96875 233.433594 C 70.339844 233.050781 70.695312 232.671875 71.035156 232.25 C 71.378906 231.828125 71.695312 231.394531 71.984375 230.90625 C 71.417969 231.011719 70.90625 231.195312 70.40625 231.378906 C 69.902344 231.578125 69.429688 231.800781 68.957031 232.039062 C 68.285156 232.382812 67.640625 232.761719 67.019531 233.183594 C 66.757812 233.09375 66.492188 232.988281 66.21875 232.894531 C 66.164062 232.882812 66.097656 232.855469 66.046875 232.84375 C 66.308594 232.550781 66.574219 232.277344 66.824219 231.984375 C 67.164062 231.578125 67.496094 231.15625 67.796875 230.722656 C 68.085938 230.273438 68.390625 229.8125 68.625 229.300781 C 68.074219 229.457031 67.585938 229.683594 67.097656 229.90625 C 66.613281 230.144531 66.152344 230.394531 65.703125 230.667969 C 64.992188 231.117188 64.335938 231.605469 63.6875 232.105469 C 63.371094 232.027344 63.058594 231.945312 62.753906 231.855469 C 62.976562 231.589844 63.214844 231.300781 63.4375 231.011719 C 63.753906 230.589844 64.042969 230.15625 64.335938 229.695312 C 64.597656 229.234375 64.859375 228.761719 65.070312 228.234375 C 64.542969 228.429688 64.058594 228.667969 63.582031 228.929688 C 63.121094 229.195312 62.675781 229.484375 62.242188 229.773438 C 61.582031 230.234375 60.964844 230.75 60.371094 231.273438 C 60.265625 231.25 60.160156 231.222656 60.042969 231.210938 C 59.882812 231.167969 59.726562 231.128906 59.566406 231.089844 C 59.832031 230.789062 60.09375 230.472656 60.332031 230.144531 C 60.648438 229.722656 60.949219 229.285156 61.226562 228.824219 C 61.503906 228.363281 61.765625 227.890625 61.976562 227.363281 C 61.4375 227.546875 60.949219 227.800781 60.476562 228.050781 C 60.015625 228.3125 59.566406 228.601562 59.132812 228.90625 C 58.394531 229.433594 57.699219 229.996094 57.039062 230.617188 C 56.972656 230.605469 56.921875 230.589844 56.855469 230.578125 C 56.339844 230.5 55.816406 230.433594 55.300781 230.367188 C 55.589844 229.933594 55.867188 229.472656 56.128906 229.011719 C 56.382812 228.550781 56.617188 228.074219 56.828125 227.589844 C 57.039062 227.085938 57.238281 226.585938 57.367188 226.035156 C 56.867188 226.296875 56.421875 226.601562 55.984375 226.929688 C 55.566406 227.246094 55.15625 227.589844 54.761719 227.945312 C 54.050781 228.617188 53.40625 229.328125 52.785156 230.078125 C 52.550781 230.050781 52.300781 230.023438 52.050781 229.996094 C 51.796875 229.984375 51.5625 229.972656 51.3125 229.957031 C 51.457031 229.550781 51.574219 229.140625 51.691406 228.71875 C 51.824219 228.21875 51.957031 227.695312 52.035156 227.179688 C 52.128906 226.640625 52.195312 226.101562 52.195312 225.535156 C 51.757812 225.914062 51.402344 226.324219 51.0625 226.730469 C 50.71875 227.152344 50.417969 227.574219 50.125 228.023438 C 49.730469 228.617188 49.390625 229.222656 49.058594 229.839844 C 48.914062 229.839844 48.769531 229.839844 48.625 229.839844 C 48.164062 229.828125 47.703125 229.8125 47.257812 229.8125 C 47.046875 229.8125 46.835938 229.8125 46.625 229.8125 C 46.714844 229.433594 46.808594 229.023438 46.886719 228.628906 C 46.964844 228.101562 47.046875 227.589844 47.085938 227.046875 C 47.125 226.507812 47.152344 225.96875 47.097656 225.402344 C 46.703125 225.8125 46.386719 226.246094 46.070312 226.691406 C 45.78125 227.140625 45.503906 227.589844 45.253906 228.050781 C 44.9375 228.65625 44.648438 229.273438 44.386719 229.890625 C 44.199219 229.890625 44.003906 229.917969 43.804688 229.933594 C 43.582031 229.945312 43.34375 229.945312 43.109375 229.957031 C 43.214844 229.589844 43.292969 229.207031 43.359375 228.824219 C 43.449219 228.300781 43.53125 227.773438 43.570312 227.246094 C 43.609375 226.707031 43.621094 226.167969 43.582031 225.601562 C 43.1875 226.007812 42.859375 226.441406 42.554688 226.890625 C 42.253906 227.339844 41.988281 227.785156 41.738281 228.246094 C 41.394531 228.878906 41.09375 229.523438 40.832031 230.167969 C 40.605469 230.195312 40.394531 230.222656 40.183594 230.25 C 39.960938 230.273438 39.738281 230.3125 39.527344 230.339844 C 39.605469 229.917969 39.683594 229.496094 39.75 229.074219 C 39.816406 228.550781 39.867188 228.023438 39.882812 227.484375 C 39.910156 226.957031 39.894531 226.402344 39.828125 225.835938 C 39.449219 226.269531 39.144531 226.71875 38.867188 227.179688 C 38.578125 227.628906 38.328125 228.089844 38.089844 228.5625 C 37.761719 229.273438 37.460938 229.972656 37.210938 230.707031 C 37.078125 230.734375 36.945312 230.761719 36.8125 230.789062 C 36.40625 230.855469 35.996094 230.933594 35.601562 231.011719 C 35.589844 231.011719 35.589844 231.011719 35.589844 231.023438 C 35.617188 230.695312 35.65625 230.351562 35.667969 230.011719 C 35.695312 229.496094 35.707031 228.957031 35.679688 228.429688 C 35.65625 227.890625 35.601562 227.351562 35.484375 226.796875 C 35.140625 227.246094 34.878906 227.71875 34.640625 228.207031 C 34.390625 228.679688 34.179688 229.167969 33.984375 229.65625 C 33.746094 230.273438 33.535156 230.90625 33.363281 231.539062 C 33.023438 231.628906 32.679688 231.722656 32.335938 231.816406 C 32.085938 231.878906 31.851562 231.945312 31.601562 232.027344 C 31.664062 231.566406 31.703125 231.089844 31.730469 230.628906 C 31.757812 230.101562 31.769531 229.578125 31.746094 229.050781 C 31.71875 228.511719 31.664062 227.96875 31.546875 227.417969 C 31.203125 227.863281 30.941406 228.339844 30.691406 228.8125 C 30.453125 229.300781 30.242188 229.773438 30.046875 230.273438 C 29.730469 231.089844 29.464844 231.921875 29.253906 232.777344 C 29.175781 232.800781 29.109375 232.828125 29.03125 232.855469 C 28.691406 232.972656 28.359375 233.105469 28.042969 233.222656 C 27.9375 233.261719 27.820312 233.304688 27.714844 233.34375 C 27.703125 232.921875 27.6875 232.488281 27.648438 232.066406 C 27.597656 231.550781 27.53125 231.023438 27.425781 230.5 C 27.320312 229.972656 27.1875 229.445312 26.992188 228.90625 C 26.726562 229.40625 26.53125 229.917969 26.359375 230.417969 C 26.1875 230.933594 26.042969 231.445312 25.925781 231.960938 C 25.753906 232.710938 25.632812 233.472656 25.554688 234.238281 C 25.332031 234.34375 25.109375 234.433594 24.898438 234.539062 C 24.765625 234.59375 24.632812 234.644531 24.503906 234.710938 C 24.488281 234.371094 24.476562 234.015625 24.4375 233.671875 C 24.398438 233.144531 24.316406 232.632812 24.210938 232.089844 C 24.105469 231.578125 23.988281 231.039062 23.792969 230.511719 C 23.515625 231.011719 23.332031 231.523438 23.144531 232.027344 C 22.976562 232.539062 22.84375 233.050781 22.726562 233.554688 C 22.554688 234.316406 22.433594 235.054688 22.34375 235.816406 C 22.238281 235.871094 22.132812 235.9375 22.015625 236.003906 C 21.84375 236.09375 21.671875 236.1875 21.5 236.277344 C 15.757812 227.023438 13.558594 216.066406 15.3125 205.28125 C 16.507812 197.910156 19.5 191.035156 23.9375 185.214844 C 25.109375 183.886719 26.476562 182.292969 27.808594 180.789062 C 28.875 179.710938 30.007812 178.671875 31.191406 177.695312 C 31.324219 177.839844 31.453125 177.972656 31.601562 178.117188 C 31.640625 178.15625 31.664062 178.195312 31.71875 178.25 C 31.558594 178.988281 31.429688 179.738281 31.347656 180.5 C 31.308594 181.027344 31.269531 181.554688 31.285156 182.09375 C 31.285156 182.621094 31.308594 183.175781 31.402344 183.726562 C 31.757812 183.292969 32.046875 182.832031 32.3125 182.359375 C 32.574219 181.898438 32.8125 181.421875 33.023438 180.9375 C 33.167969 180.621094 33.285156 180.304688 33.417969 179.972656 C 33.5625 180.121094 33.71875 180.265625 33.863281 180.410156 C 33.996094 180.527344 34.113281 180.644531 34.246094 180.765625 C 34.089844 181.515625 33.96875 182.277344 33.890625 183.042969 C 33.839844 183.570312 33.8125 184.097656 33.8125 184.636719 C 33.8125 185.164062 33.839844 185.703125 33.929688 186.269531 C 34.285156 185.832031 34.574219 185.359375 34.839844 184.898438 C 35.101562 184.4375 35.339844 183.964844 35.5625 183.476562 C 35.722656 183.09375 35.878906 182.699219 36.023438 182.304688 C 36.15625 182.410156 36.289062 182.515625 36.417969 182.609375 C 36.683594 182.832031 36.957031 183.054688 37.25 183.28125 C 37.261719 183.292969 37.289062 183.320312 37.3125 183.332031 C 37.234375 184.199219 37.222656 185.070312 37.261719 185.953125 C 37.289062 186.480469 37.339844 186.992188 37.417969 187.53125 C 37.5 188.058594 37.605469 188.597656 37.773438 189.140625 C 38.066406 188.652344 38.289062 188.152344 38.472656 187.652344 C 38.671875 187.152344 38.828125 186.636719 38.972656 186.136719 C 39.09375 185.6875 39.199219 185.242188 39.289062 184.792969 C 39.527344 184.953125 39.789062 185.121094 40.027344 185.28125 C 40.289062 185.464844 40.539062 185.636719 40.804688 185.808594 C 40.777344 186.464844 40.765625 187.125 40.804688 187.78125 C 40.832031 188.308594 40.871094 188.835938 40.960938 189.363281 C 41.039062 189.890625 41.144531 190.429688 41.316406 190.96875 C 41.605469 190.480469 41.816406 189.980469 42.015625 189.480469 C 42.210938 188.980469 42.371094 188.46875 42.515625 187.96875 C 42.59375 187.652344 42.671875 187.320312 42.753906 187.003906 C 42.792969 187.019531 42.832031 187.046875 42.871094 187.070312 C 43.226562 187.269531 43.582031 187.464844 43.9375 187.664062 C 44.015625 187.71875 44.109375 187.769531 44.1875 187.808594 C 44.199219 188.585938 44.253906 189.351562 44.359375 190.113281 C 44.425781 190.625 44.515625 191.152344 44.636719 191.679688 C 44.765625 192.195312 44.910156 192.71875 45.136719 193.246094 C 45.386719 192.734375 45.558594 192.21875 45.714844 191.707031 C 45.859375 191.191406 45.980469 190.679688 46.082031 190.152344 C 46.164062 189.730469 46.214844 189.308594 46.269531 188.890625 C 46.503906 189.007812 46.730469 189.125 46.953125 189.230469 C 47.125 189.308594 47.296875 189.390625 47.453125 189.46875 C 47.507812 190.167969 47.585938 190.863281 47.703125 191.574219 C 47.796875 192.089844 47.914062 192.601562 48.046875 193.117188 C 48.113281 193.3125 48.175781 193.496094 48.230469 193.695312 C 43.464844 201.648438 39.210938 210.300781 35.578125 219.714844 C 40.054688 209.429688 45.175781 200.054688 50.796875 191.523438 C 50.851562 191.96875 50.902344 192.417969 50.980469 192.867188 C 51.074219 193.378906 51.179688 193.90625 51.324219 194.417969 C 51.484375 194.933594 51.640625 195.445312 51.890625 195.972656 C 52.113281 195.445312 52.257812 194.933594 52.40625 194.40625 C 52.535156 193.890625 52.628906 193.367188 52.707031 192.851562 C 52.761719 192.445312 52.800781 192.035156 52.839844 191.640625 C 53.050781 191.71875 53.273438 191.800781 53.484375 191.863281 C 53.917969 192.007812 54.351562 192.140625 54.789062 192.273438 C 54.90625 192.3125 55.039062 192.351562 55.15625 192.390625 C 55.273438 193.074219 55.40625 193.761719 55.589844 194.457031 C 55.722656 194.960938 55.878906 195.460938 56.066406 195.960938 C 56.261719 196.460938 56.472656 196.960938 56.761719 197.460938 C 56.933594 196.921875 57.050781 196.394531 57.132812 195.855469 C 57.222656 195.328125 57.261719 194.800781 57.300781 194.273438 C 57.328125 193.851562 57.328125 193.429688 57.328125 192.996094 C 57.578125 193.0625 57.816406 193.128906 58.066406 193.195312 C 58.304688 193.261719 58.539062 193.300781 58.765625 193.351562 C 59.105469 194.261719 59.5 195.144531 59.976562 195.984375 C 60.226562 196.445312 60.503906 196.894531 60.804688 197.34375 C 61.109375 197.777344 61.4375 198.210938 61.832031 198.632812 C 61.871094 198.066406 61.84375 197.511719 61.804688 196.988281 C 61.765625 196.445312 61.6875 195.933594 61.59375 195.40625 C 61.488281 194.894531 61.382812 194.378906 61.238281 193.878906 C 61.753906 193.972656 62.265625 194.078125 62.792969 194.15625 C 62.847656 194.167969 62.898438 194.183594 62.964844 194.183594 C 63.398438 194.972656 63.875 195.734375 64.414062 196.460938 C 64.730469 196.882812 65.058594 197.304688 65.425781 197.699219 C 65.78125 198.09375 66.164062 198.476562 66.613281 198.832031 C 66.585938 198.265625 66.480469 197.722656 66.375 197.210938 C 66.257812 196.683594 66.113281 196.171875 65.941406 195.671875 C 65.820312 195.289062 65.675781 194.90625 65.519531 194.539062 C 65.675781 194.550781 65.820312 194.5625 65.980469 194.578125 C 66.097656 194.589844 66.21875 194.605469 66.335938 194.617188 C 66.730469 195.316406 67.164062 195.972656 67.640625 196.617188 C 67.957031 197.039062 68.285156 197.460938 68.640625 197.855469 C 69.007812 198.25 69.390625 198.632812 69.839844 198.988281 C 69.796875 198.410156 69.707031 197.882812 69.589844 197.355469 C 69.46875 196.84375 69.324219 196.328125 69.167969 195.828125 C 69.046875 195.484375 68.929688 195.15625 68.796875 194.8125 C 69.113281 194.839844 69.429688 194.867188 69.746094 194.878906 C 70.195312 195.566406 70.667969 196.234375 71.207031 196.867188 C 71.550781 197.277344 71.890625 197.660156 72.273438 198.039062 C 72.667969 198.410156 73.0625 198.777344 73.539062 199.105469 C 73.472656 198.539062 73.339844 198 73.195312 197.488281 C 73.050781 196.972656 72.878906 196.472656 72.683594 195.984375 C 72.539062 195.628906 72.394531 195.273438 72.222656 194.933594 C 72.261719 194.933594 72.300781 194.933594 72.339844 194.933594 C 72.644531 194.933594 72.945312 194.917969 73.261719 194.917969 C 73.722656 195.5 74.195312 196.078125 74.722656 196.617188 C 75.09375 196.988281 75.472656 197.34375 75.894531 197.683594 C 76.304688 198.027344 76.738281 198.355469 77.226562 198.644531 C 77.121094 198.09375 76.949219 197.566406 76.765625 197.066406 C 76.578125 196.566406 76.355469 196.078125 76.132812 195.605469 C 76 195.339844 75.84375 195.089844 75.699219 194.828125 C 75.722656 194.828125 75.75 194.828125 75.761719 194.828125 C 76.027344 194.800781 76.289062 194.800781 76.554688 194.773438 C 77.054688 195.394531 77.582031 195.984375 78.148438 196.539062 C 78.527344 196.90625 78.921875 197.261719 79.34375 197.59375 C 79.78125 197.921875 80.214844 198.238281 80.714844 198.515625 C 80.582031 197.949219 80.398438 197.449219 80.199219 196.949219 C 80.003906 196.445312 79.78125 195.972656 79.53125 195.511719 C 79.359375 195.183594 79.175781 194.867188 78.976562 194.550781 C 79.109375 194.539062 79.238281 194.523438 79.371094 194.511719 C 79.554688 194.484375 79.753906 194.457031 79.949219 194.433594 C 80.386719 194.960938 80.847656 195.472656 81.347656 195.960938 C 81.726562 196.316406 82.125 196.671875 82.542969 197 C 82.964844 197.328125 83.402344 197.644531 83.902344 197.921875 C 83.78125 197.367188 83.597656 196.855469 83.402344 196.355469 C 83.191406 195.855469 82.964844 195.378906 82.730469 194.917969 C 82.570312 194.628906 82.398438 194.351562 82.242188 194.078125 C 82.398438 194.050781 82.558594 194.011719 82.730469 193.984375 C 83.058594 193.917969 83.402344 193.867188 83.742188 193.789062 C 84.28125 194.339844 84.863281 194.855469 85.480469 195.339844 C 85.890625 195.65625 86.324219 195.972656 86.773438 196.261719 C 87.234375 196.539062 87.707031 196.816406 88.234375 197.039062 C 88.050781 196.488281 87.8125 196.011719 87.5625 195.523438 C 87.3125 195.050781 87.035156 194.605469 86.746094 194.167969 C 86.535156 193.851562 86.296875 193.550781 86.074219 193.261719 C 86.101562 193.261719 86.125 193.246094 86.140625 193.246094 C 86.46875 193.15625 86.773438 193.074219 87.085938 192.984375 C 87.679688 193.496094 88.285156 193.972656 88.945312 194.417969 C 89.378906 194.707031 89.828125 194.984375 90.300781 195.234375 C 90.773438 195.484375 91.261719 195.722656 91.816406 195.894531 C 91.589844 195.378906 91.316406 194.90625 91.039062 194.457031 C 90.75 193.996094 90.433594 193.5625 90.117188 193.15625 C 89.890625 192.851562 89.640625 192.574219 89.390625 192.300781 C 89.746094 192.179688 90.117188 192.0625 90.472656 191.945312 C 90.550781 191.902344 90.65625 191.878906 90.75 191.851562 C 91.460938 192.363281 92.210938 192.851562 93 193.273438 C 93.460938 193.511719 93.933594 193.746094 94.433594 193.957031 C 94.921875 194.15625 95.4375 194.339844 95.988281 194.472656 C 95.726562 193.972656 95.410156 193.523438 95.082031 193.101562 C 94.75 192.679688 94.394531 192.285156 94.039062 191.902344 C 93.722656 191.574219 93.394531 191.257812 93.066406 190.957031 C 93.222656 190.890625 93.367188 190.8125 93.527344 190.746094 C 93.828125 190.613281 94.117188 190.496094 94.421875 190.351562 C 95.066406 190.8125 95.738281 191.234375 96.4375 191.613281 C 96.898438 191.863281 97.371094 192.101562 97.871094 192.300781 C 98.371094 192.496094 98.871094 192.695312 99.425781 192.824219 C 99.164062 192.3125 98.847656 191.878906 98.515625 191.441406 C 98.1875 191.023438 97.84375 190.625 97.476562 190.246094 C 97.175781 189.929688 96.859375 189.625 96.527344 189.324219 C 96.542969 189.324219 96.542969 189.324219 96.542969 189.324219 C 96.859375 189.164062 97.160156 189.007812 97.464844 188.835938 C 97.636719 188.742188 97.804688 188.652344 97.976562 188.558594 C 103.824219 197.855469 106.0625 208.890625 104.285156 219.765625 Z M 85.046875 249.855469 C 85.191406 249.539062 85.335938 249.210938 85.453125 248.894531 C 85.625 248.457031 85.769531 248.023438 85.902344 247.589844 C 86.101562 247.800781 86.3125 248.023438 86.507812 248.234375 C 86.613281 248.351562 86.71875 248.472656 86.824219 248.589844 C 86.246094 249.023438 85.652344 249.445312 85.046875 249.855469 Z M 83.730469 248.5 C 83.691406 249.066406 83.664062 249.617188 83.691406 250.183594 C 83.703125 250.367188 83.703125 250.539062 83.714844 250.710938 C 74.5 256.492188 63.386719 258.769531 52.5625 257.003906 C 40.488281 255.042969 29.691406 248.195312 22.738281 238.160156 C 22.871094 238.082031 23.015625 238.003906 23.144531 237.925781 C 23.160156 237.925781 23.160156 237.925781 23.160156 237.925781 C 23.921875 238.4375 24.726562 238.925781 25.570312 239.347656 C 26.070312 239.582031 26.582031 239.820312 27.109375 240.019531 C 27.648438 240.214844 28.1875 240.398438 28.78125 240.503906 C 28.480469 239.992188 28.125 239.542969 27.753906 239.097656 C 27.386719 238.675781 26.992188 238.265625 26.582031 237.886719 C 26.1875 237.503906 25.765625 237.132812 25.34375 236.792969 C 25.53125 236.699219 25.726562 236.609375 25.925781 236.515625 C 26.070312 236.449219 26.226562 236.382812 26.371094 236.316406 C 27.136719 236.84375 27.9375 237.320312 28.78125 237.742188 C 29.28125 237.976562 29.78125 238.214844 30.324219 238.410156 C 30.847656 238.609375 31.390625 238.792969 31.980469 238.898438 C 31.679688 238.386719 31.324219 237.9375 30.953125 237.503906 C 30.585938 237.070312 30.203125 236.660156 29.796875 236.277344 C 29.453125 235.949219 29.097656 235.648438 28.730469 235.34375 C 28.796875 235.332031 28.847656 235.304688 28.898438 235.277344 C 29.214844 235.160156 29.546875 235.042969 29.863281 234.921875 C 29.925781 234.910156 30.007812 234.882812 30.070312 234.855469 C 30.679688 235.410156 31.324219 235.921875 32.007812 236.410156 C 32.46875 236.726562 32.941406 237.03125 33.429688 237.304688 C 33.945312 237.570312 34.445312 237.832031 35.011719 238.03125 C 34.785156 237.476562 34.507812 236.976562 34.207031 236.488281 C 33.902344 236.015625 33.574219 235.554688 33.234375 235.121094 C 32.96875 234.777344 32.679688 234.433594 32.402344 234.121094 C 32.601562 234.066406 32.796875 234 33.007812 233.949219 C 33.179688 233.894531 33.351562 233.855469 33.535156 233.804688 C 34.285156 234.527344 35.089844 235.1875 35.945312 235.792969 C 36.40625 236.109375 36.878906 236.410156 37.378906 236.6875 C 37.878906 236.949219 38.382812 237.214844 38.960938 237.410156 C 38.722656 236.859375 38.445312 236.359375 38.144531 235.871094 C 37.839844 235.398438 37.511719 234.949219 37.167969 234.5 C 36.8125 234.054688 36.445312 233.617188 36.0625 233.199219 C 36.089844 233.183594 36.117188 233.183594 36.15625 233.171875 C 36.523438 233.105469 36.90625 233.027344 37.289062 232.960938 C 37.378906 232.933594 37.460938 232.921875 37.539062 232.90625 C 38.15625 233.59375 38.828125 234.238281 39.566406 234.84375 C 39.988281 235.199219 40.433594 235.542969 40.910156 235.855469 C 41.382812 236.160156 41.871094 236.464844 42.421875 236.714844 C 42.238281 236.132812 41.988281 235.621094 41.738281 235.105469 C 41.476562 234.605469 41.1875 234.132812 40.882812 233.660156 C 40.621094 233.261719 40.34375 232.894531 40.066406 232.511719 C 40.222656 232.5 40.371094 232.472656 40.527344 232.460938 C 40.644531 232.445312 40.75 232.433594 40.871094 232.421875 C 41.5 233.183594 42.1875 233.910156 42.9375 234.582031 C 43.34375 234.949219 43.78125 235.304688 44.226562 235.648438 C 44.6875 235.976562 45.175781 236.292969 45.714844 236.570312 C 45.558594 235.988281 45.332031 235.449219 45.097656 234.9375 C 44.859375 234.421875 44.582031 233.933594 44.304688 233.460938 C 44.042969 233.011719 43.753906 232.59375 43.464844 232.183594 C 43.648438 232.171875 43.820312 232.15625 43.992188 232.144531 C 44.09375 232.144531 44.199219 232.132812 44.304688 232.132812 C 44.964844 232.921875 45.675781 233.683594 46.453125 234.382812 C 46.859375 234.765625 47.296875 235.121094 47.757812 235.449219 C 48.21875 235.777344 48.691406 236.109375 49.230469 236.371094 C 49.074219 235.792969 48.847656 235.25 48.613281 234.738281 C 48.375 234.226562 48.113281 233.738281 47.820312 233.261719 C 47.570312 232.84375 47.308594 232.445312 47.03125 232.050781 C 47.125 232.050781 47.203125 232.039062 47.296875 232.039062 C 47.730469 232.039062 48.164062 232.050781 48.597656 232.066406 C 48.691406 232.066406 48.785156 232.066406 48.875 232.066406 C 49.453125 232.894531 50.074219 233.683594 50.757812 234.421875 C 51.140625 234.832031 51.535156 235.226562 51.96875 235.605469 C 52.40625 235.976562 52.839844 236.332031 53.367188 236.648438 C 53.261719 236.054688 53.074219 235.5 52.890625 234.976562 C 52.695312 234.433594 52.46875 233.921875 52.21875 233.421875 C 52.023438 233.011719 51.8125 232.605469 51.574219 232.210938 C 51.679688 232.210938 51.785156 232.222656 51.890625 232.222656 C 52.21875 232.25 52.550781 232.289062 52.878906 232.328125 C 53.167969 233.011719 53.484375 233.671875 53.851562 234.328125 C 54.128906 234.804688 54.417969 235.292969 54.75 235.753906 C 55.078125 236.214844 55.417969 236.671875 55.839844 237.109375 C 55.878906 236.503906 55.839844 235.921875 55.789062 235.355469 C 55.722656 234.789062 55.628906 234.238281 55.511719 233.699219 C 55.433594 233.328125 55.339844 232.960938 55.25 232.605469 C 55.671875 232.671875 56.078125 232.710938 56.5 232.789062 C 56.539062 232.789062 56.589844 232.800781 56.632812 232.816406 C 56.828125 233.578125 57.066406 234.34375 57.367188 235.09375 C 57.566406 235.621094 57.789062 236.132812 58.054688 236.632812 C 58.316406 237.132812 58.605469 237.636719 58.960938 238.121094 C 59.082031 237.53125 59.121094 236.949219 59.144531 236.382812 C 59.160156 235.816406 59.132812 235.265625 59.09375 234.710938 C 59.066406 234.210938 59 233.722656 58.933594 233.238281 C 59.144531 233.277344 59.34375 233.328125 59.554688 233.367188 C 59.582031 233.382812 59.621094 233.394531 59.660156 233.394531 C 59.871094 234.277344 60.132812 235.132812 60.464844 235.976562 C 60.671875 236.488281 60.898438 237.003906 61.160156 237.515625 C 61.425781 238.015625 61.699219 238.515625 62.070312 238.992188 C 62.1875 238.398438 62.226562 237.832031 62.242188 237.265625 C 62.265625 236.6875 62.242188 236.132812 62.199219 235.582031 C 62.160156 235.042969 62.09375 234.5 62.015625 233.972656 C 62.320312 234.054688 62.621094 234.132812 62.925781 234.226562 C 63.097656 235.066406 63.292969 235.921875 63.570312 236.753906 C 63.742188 237.292969 63.9375 237.804688 64.164062 238.332031 C 64.398438 238.847656 64.648438 239.359375 64.992188 239.859375 C 65.136719 239.28125 65.214844 238.714844 65.269531 238.148438 C 65.320312 237.582031 65.335938 237.015625 65.320312 236.464844 C 65.308594 235.949219 65.28125 235.4375 65.242188 234.921875 C 65.308594 234.949219 65.386719 234.976562 65.464844 235 C 65.613281 235.042969 65.742188 235.09375 65.886719 235.144531 C 65.980469 236.082031 66.125 237.003906 66.347656 237.925781 C 66.480469 238.464844 66.625 239.003906 66.808594 239.542969 C 67.007812 240.070312 67.21875 240.609375 67.507812 241.136719 C 67.703125 240.570312 67.824219 240.003906 67.929688 239.453125 C 68.019531 238.886719 68.074219 238.332031 68.113281 237.78125 C 68.152344 237.175781 68.164062 236.570312 68.152344 235.976562 C 68.285156 236.027344 68.429688 236.09375 68.574219 236.148438 C 68.730469 236.214844 68.890625 236.277344 69.046875 236.34375 C 69.113281 237.238281 69.234375 238.121094 69.429688 239.003906 C 69.535156 239.558594 69.679688 240.097656 69.851562 240.636719 C 70.035156 241.175781 70.21875 241.71875 70.507812 242.242188 C 70.71875 241.691406 70.851562 241.125 70.957031 240.570312 C 71.074219 240.019531 71.140625 239.453125 71.195312 238.914062 C 71.246094 238.371094 71.273438 237.847656 71.273438 237.320312 C 71.429688 237.386719 71.601562 237.464844 71.761719 237.53125 C 71.800781 237.554688 71.828125 237.570312 71.867188 237.59375 C 71.933594 238.582031 72.050781 239.582031 72.261719 240.570312 C 72.378906 241.125 72.523438 241.664062 72.695312 242.203125 C 72.867188 242.742188 73.0625 243.285156 73.339844 243.824219 C 73.566406 243.257812 73.695312 242.703125 73.800781 242.136719 C 73.921875 241.585938 73.984375 241.03125 74.039062 240.480469 C 74.089844 239.898438 74.117188 239.320312 74.117188 238.742188 C 74.300781 238.832031 74.488281 238.9375 74.671875 239.03125 C 74.882812 239.164062 75.09375 239.28125 75.300781 239.398438 C 75.277344 240.308594 75.300781 241.230469 75.394531 242.136719 C 75.449219 242.691406 75.527344 243.246094 75.644531 243.8125 C 75.761719 244.363281 75.894531 244.917969 76.117188 245.484375 C 76.394531 244.941406 76.578125 244.402344 76.765625 243.863281 C 76.921875 243.308594 77.054688 242.769531 77.160156 242.230469 C 77.265625 241.71875 77.34375 241.191406 77.410156 240.675781 C 77.460938 240.703125 77.5 240.730469 77.554688 240.753906 C 77.738281 240.875 77.921875 241.007812 78.105469 241.125 C 78.015625 242.03125 77.960938 242.941406 78.003906 243.863281 C 78.015625 244.429688 78.054688 244.984375 78.132812 245.546875 C 78.210938 246.113281 78.304688 246.667969 78.488281 247.246094 C 78.792969 246.734375 79.027344 246.207031 79.238281 245.679688 C 79.4375 245.140625 79.609375 244.613281 79.765625 244.074219 C 79.898438 243.574219 80.015625 243.046875 80.121094 242.535156 C 80.148438 242.546875 80.160156 242.574219 80.1875 242.585938 C 80.492188 242.808594 80.792969 243.035156 81.082031 243.257812 C 81.164062 243.308594 81.226562 243.375 81.292969 243.429688 C 81.148438 244.230469 81.042969 245.035156 80.992188 245.839844 C 80.953125 246.40625 80.925781 246.957031 80.953125 247.523438 C 80.976562 248.089844 81.015625 248.667969 81.136719 249.261719 C 81.503906 248.773438 81.78125 248.273438 82.042969 247.773438 C 82.292969 247.261719 82.519531 246.746094 82.714844 246.21875 C 82.875 245.8125 83.019531 245.390625 83.152344 244.96875 C 83.269531 245.074219 83.386719 245.179688 83.507812 245.285156 C 83.703125 245.457031 83.902344 245.640625 84.085938 245.8125 C 83.914062 246.707031 83.78125 247.589844 83.730469 248.5 Z M 50.125 190.613281 C 49.875 191.007812 49.625 191.402344 49.390625 191.8125 C 49.402344 191.71875 49.414062 191.628906 49.429688 191.546875 C 49.480469 191.167969 49.519531 190.773438 49.558594 190.390625 C 49.746094 190.46875 49.929688 190.546875 50.125 190.613281 Z M 52.8125 186.480469 C 52.324219 187.214844 51.839844 187.96875 51.351562 188.703125 C 51.285156 188.679688 51.234375 188.664062 51.179688 188.636719 C 50.980469 188.558594 50.785156 188.480469 50.585938 188.402344 C 50.996094 188.097656 51.402344 187.78125 51.785156 187.441406 C 52.140625 187.136719 52.484375 186.820312 52.8125 186.480469 Z M 67.046875 168.03125 C 67.140625 168.042969 67.230469 168.070312 67.335938 168.085938 C 62.570312 173.273438 58.054688 178.894531 53.839844 184.992188 C 53.339844 185.082031 52.878906 185.203125 52.417969 185.347656 C 51.878906 185.519531 51.351562 185.714844 50.851562 185.9375 C 49.914062 186.347656 49.035156 186.820312 48.191406 187.347656 C 48.125 187.308594 48.046875 187.28125 47.980469 187.242188 C 47.808594 187.164062 47.636719 187.085938 47.464844 186.992188 C 47.847656 186.730469 48.242188 186.464844 48.613281 186.164062 C 49.046875 185.820312 49.46875 185.464844 49.875 185.070312 C 50.285156 184.660156 50.679688 184.253906 51.035156 183.765625 C 50.441406 183.820312 49.875 183.949219 49.324219 184.097656 C 48.785156 184.242188 48.257812 184.425781 47.730469 184.621094 C 46.847656 184.964844 46.003906 185.359375 45.1875 185.820312 C 45.164062 185.808594 45.136719 185.78125 45.109375 185.769531 C 44.765625 185.582031 44.410156 185.386719 44.070312 185.1875 C 44.003906 185.148438 43.949219 185.109375 43.886719 185.082031 C 44.386719 184.808594 44.871094 184.503906 45.359375 184.1875 C 45.820312 183.886719 46.28125 183.554688 46.714844 183.1875 C 47.152344 182.832031 47.585938 182.449219 47.980469 181.988281 C 47.375 182.003906 46.808594 182.082031 46.242188 182.1875 C 45.6875 182.292969 45.148438 182.421875 44.609375 182.582031 C 43.59375 182.882812 42.621094 183.265625 41.671875 183.699219 C 41.566406 183.636719 41.476562 183.570312 41.371094 183.503906 C 41.144531 183.359375 40.921875 183.199219 40.699219 183.042969 C 41.082031 182.832031 41.449219 182.59375 41.816406 182.359375 C 42.277344 182.054688 42.738281 181.726562 43.175781 181.355469 C 43.609375 181 44.042969 180.621094 44.4375 180.160156 C 43.832031 180.171875 43.265625 180.25 42.699219 180.355469 C 42.148438 180.449219 41.605469 180.59375 41.066406 180.75 C 40.265625 180.988281 39.488281 181.277344 38.722656 181.605469 C 38.710938 181.59375 38.695312 181.582031 38.683594 181.566406 C 38.421875 181.371094 38.15625 181.160156 37.90625 180.949219 C 37.800781 180.871094 37.710938 180.804688 37.617188 180.710938 C 38.050781 180.554688 38.5 180.371094 38.933594 180.171875 C 39.433594 179.933594 39.933594 179.671875 40.421875 179.382812 C 40.894531 179.078125 41.382812 178.761719 41.84375 178.367188 C 41.238281 178.300781 40.671875 178.300781 40.09375 178.316406 C 39.527344 178.328125 38.972656 178.382812 38.421875 178.460938 C 37.5 178.589844 36.578125 178.789062 35.679688 179.039062 C 35.617188 178.972656 35.535156 178.90625 35.457031 178.828125 C 35.261719 178.644531 35.0625 178.460938 34.863281 178.261719 C 35.378906 178.078125 35.890625 177.867188 36.394531 177.628906 C 36.894531 177.394531 37.394531 177.128906 37.878906 176.839844 C 38.367188 176.550781 38.855469 176.234375 39.300781 175.839844 C 38.710938 175.761719 38.128906 175.761719 37.566406 175.773438 C 37 175.785156 36.445312 175.839844 35.890625 175.917969 C 34.957031 176.050781 34.046875 176.246094 33.140625 176.511719 C 33.085938 176.445312 33.035156 176.378906 32.96875 176.3125 C 42.714844 169.097656 55.0625 166.082031 67.046875 168.03125 Z M 69.085938 168.414062 C 79.070312 170.519531 88.0625 175.996094 94.554688 183.820312 C 94.515625 183.898438 94.488281 183.992188 94.449219 184.070312 C 94.25 184.597656 94.09375 185.136719 93.949219 185.675781 C 93.710938 186.558594 93.554688 187.453125 93.449219 188.347656 C 93.144531 188.480469 92.855469 188.613281 92.550781 188.742188 C 92.460938 188.785156 92.367188 188.824219 92.277344 188.847656 C 92.289062 188.414062 92.289062 187.96875 92.277344 187.519531 C 92.25 186.953125 92.210938 186.398438 92.117188 185.832031 C 92.027344 185.28125 91.933594 184.714844 91.734375 184.136719 C 91.433594 184.660156 91.210938 185.1875 91.011719 185.714844 C 90.8125 186.253906 90.644531 186.78125 90.511719 187.320312 C 90.300781 188.113281 90.140625 188.914062 90.039062 189.71875 C 89.90625 189.769531 89.773438 189.824219 89.640625 189.863281 C 89.3125 189.980469 88.96875 190.101562 88.640625 190.207031 C 88.707031 189.679688 88.761719 189.152344 88.785156 188.613281 C 88.8125 188.058594 88.824219 187.507812 88.800781 186.925781 C 88.761719 186.359375 88.71875 185.792969 88.589844 185.203125 C 88.234375 185.6875 87.957031 186.191406 87.707031 186.703125 C 87.457031 187.214844 87.246094 187.730469 87.046875 188.257812 C 86.730469 189.125 86.480469 190.007812 86.285156 190.902344 C 86.019531 190.96875 85.769531 191.035156 85.507812 191.101562 C 85.496094 191.101562 85.496094 191.113281 85.480469 191.113281 C 85.585938 190.585938 85.679688 190.074219 85.730469 189.546875 C 85.808594 188.996094 85.863281 188.441406 85.875 187.863281 C 85.875 187.308594 85.875 186.730469 85.785156 186.125 C 85.390625 186.585938 85.085938 187.085938 84.796875 187.570312 C 84.507812 188.058594 84.257812 188.558594 84.03125 189.058594 C 83.652344 189.914062 83.335938 190.773438 83.070312 191.652344 C 82.78125 191.707031 82.503906 191.757812 82.214844 191.8125 C 82.058594 191.839844 81.898438 191.863281 81.742188 191.890625 C 81.925781 191.351562 82.085938 190.785156 82.214844 190.21875 C 82.347656 189.679688 82.453125 189.125 82.53125 188.558594 C 82.597656 187.992188 82.648438 187.425781 82.625 186.820312 C 82.1875 187.242188 81.832031 187.691406 81.492188 188.152344 C 81.148438 188.613281 80.859375 189.074219 80.570312 189.558594 C 80.054688 190.429688 79.621094 191.339844 79.238281 192.273438 C 79.175781 192.285156 79.09375 192.300781 79.027344 192.300781 C 78.882812 192.324219 78.738281 192.324219 78.59375 192.351562 C 78.753906 191.839844 78.898438 191.324219 79.027344 190.796875 C 79.148438 190.257812 79.253906 189.707031 79.332031 189.152344 C 79.398438 188.585938 79.449219 188.019531 79.425781 187.414062 C 78.988281 187.820312 78.632812 188.28125 78.292969 188.730469 C 77.960938 189.191406 77.660156 189.664062 77.382812 190.140625 C 76.910156 190.929688 76.515625 191.734375 76.171875 192.5625 C 75.960938 192.589844 75.761719 192.601562 75.554688 192.601562 C 75.433594 192.613281 75.316406 192.613281 75.199219 192.628906 C 75.40625 192.0625 75.59375 191.484375 75.738281 190.902344 C 75.882812 190.363281 76 189.808594 76.09375 189.257812 C 76.171875 188.691406 76.238281 188.113281 76.238281 187.519531 C 75.789062 187.925781 75.421875 188.363281 75.066406 188.808594 C 74.722656 189.257812 74.40625 189.71875 74.117188 190.191406 C 73.617188 190.996094 73.183594 191.839844 72.800781 192.695312 C 72.628906 192.695312 72.457031 192.707031 72.289062 192.707031 C 72.234375 192.707031 72.167969 192.695312 72.101562 192.695312 C 72.3125 192.234375 72.511719 191.746094 72.683594 191.257812 C 72.867188 190.730469 73.023438 190.191406 73.15625 189.652344 C 73.289062 189.085938 73.40625 188.519531 73.445312 187.925781 C 72.972656 188.296875 72.5625 188.703125 72.183594 189.125 C 71.800781 189.535156 71.445312 189.980469 71.117188 190.429688 C 70.589844 191.140625 70.113281 191.878906 69.691406 192.640625 C 69.378906 192.628906 69.0625 192.601562 68.746094 192.589844 C 68.996094 192.101562 69.234375 191.613281 69.441406 191.101562 C 69.652344 190.585938 69.851562 190.074219 70.007812 189.519531 C 70.167969 188.980469 70.324219 188.429688 70.390625 187.820312 C 69.902344 188.164062 69.46875 188.558594 69.0625 188.941406 C 68.652344 189.335938 68.285156 189.757812 67.929688 190.179688 C 67.335938 190.890625 66.808594 191.613281 66.335938 192.378906 C 66.28125 192.378906 66.242188 192.378906 66.203125 192.363281 C 65.992188 192.351562 65.796875 192.324219 65.585938 192.300781 C 65.808594 191.863281 66.03125 191.402344 66.21875 190.957031 C 66.429688 190.429688 66.625 189.914062 66.796875 189.363281 C 66.953125 188.824219 67.097656 188.269531 67.179688 187.664062 C 66.679688 188.007812 66.257812 188.402344 65.847656 188.796875 C 65.441406 189.191406 65.058594 189.601562 64.703125 190.035156 C 64.175781 190.652344 63.703125 191.3125 63.269531 191.984375 C 63.226562 191.96875 63.1875 191.96875 63.148438 191.96875 C 62.726562 191.890625 62.304688 191.8125 61.898438 191.734375 C 62.109375 191.417969 62.304688 191.101562 62.503906 190.773438 C 62.78125 190.285156 63.042969 189.796875 63.292969 189.285156 C 63.519531 188.757812 63.742188 188.230469 63.886719 187.652344 C 63.359375 187.914062 62.886719 188.242188 62.425781 188.574219 C 61.964844 188.914062 61.53125 189.269531 61.121094 189.652344 C 60.566406 190.152344 60.054688 190.691406 59.566406 191.246094 C 59.25 191.179688 58.933594 191.113281 58.621094 191.035156 C 58.515625 191.007812 58.394531 190.96875 58.289062 190.941406 C 58.632812 190.640625 58.976562 190.324219 59.289062 189.980469 C 59.6875 189.585938 60.054688 189.179688 60.410156 188.730469 C 60.765625 188.28125 61.109375 187.820312 61.398438 187.296875 C 60.804688 187.425781 60.265625 187.625 59.738281 187.835938 C 59.210938 188.058594 58.710938 188.308594 58.222656 188.574219 C 57.328125 189.058594 56.484375 189.613281 55.683594 190.21875 C 55.617188 190.191406 55.550781 190.179688 55.5 190.167969 C 55.078125 190.035156 54.65625 189.902344 54.234375 189.769531 C 54.128906 189.730469 54.023438 189.691406 53.917969 189.652344 C 54.3125 189.363281 54.695312 189.074219 55.0625 188.742188 C 55.484375 188.386719 55.894531 188.007812 56.289062 187.597656 C 56.671875 187.175781 57.050781 186.742188 57.394531 186.242188 C 56.789062 186.320312 56.234375 186.480469 55.695312 186.648438 C 55.15625 186.820312 54.628906 187.019531 54.117188 187.242188 C 53.90625 187.335938 53.707031 187.441406 53.496094 187.546875 C 58.355469 180.59375 63.582031 174.234375 69.085938 168.414062 Z M 96.726562 186.691406 C 96.59375 186.769531 96.449219 186.847656 96.316406 186.925781 C 96.121094 187.03125 95.921875 187.136719 95.726562 187.230469 C 95.738281 186.78125 95.738281 186.320312 95.710938 185.859375 C 95.699219 185.664062 95.6875 185.453125 95.671875 185.242188 C 96.027344 185.714844 96.382812 186.203125 96.726562 186.691406 Z M 99.898438 187.414062 L 99.269531 186.453125 L 98.675781 185.558594 L 98.660156 185.558594 C 92.050781 176.023438 82.097656 169.257812 70.878906 166.542969 C 70.929688 166.503906 70.96875 166.464844 71.011719 166.410156 C 77.960938 159.355469 85.335938 153.074219 93.027344 147.648438 C 100.714844 142.183594 108.707031 137.523438 116.886719 133.597656 C 125.050781 129.636719 133.410156 126.421875 141.851562 123.878906 C 150.292969 121.3125 158.785156 119.457031 167.277344 118.179688 C 184.25 115.652344 201.105469 115.570312 217.195312 117.558594 C 201.367188 115.269531 184.59375 115.003906 167.59375 117.246094 C 159.101562 118.351562 150.542969 120.113281 142.023438 122.523438 C 133.53125 124.972656 125.074219 128.09375 116.78125 131.953125 C 108.5 135.851562 100.398438 140.484375 92.589844 145.9375 C 84.808594 151.425781 77.316406 157.695312 70.3125 164.925781 C 69.917969 165.320312 69.535156 165.742188 69.140625 166.160156 C 68.5625 166.042969 67.980469 165.925781 67.402344 165.832031 C 56.722656 164.09375 45.769531 166.109375 36.445312 171.390625 C 72.578125 129.304688 116.6875 111.609375 159.996094 106.921875 C 204.871094 102.65625 248.878906 112.253906 285.839844 137.167969 C 247.746094 111.132812 198.394531 100.796875 150.082031 107.828125 C 106.351562 114.375 63.476562 135.152344 31.074219 174.945312 L 30.636719 175.273438 L 29.730469 175.996094 L 29.742188 176.011719 C 20.855469 183.332031 14.96875 193.535156 13.113281 204.914062 C 11.269531 216.226562 13.585938 227.71875 19.589844 237.425781 L 19.578125 237.4375 L 20.210938 238.398438 L 20.789062 239.292969 L 20.800781 239.292969 C 28.097656 249.90625 39.488281 257.136719 52.207031 259.214844 C 64.925781 261.285156 78.015625 258.019531 88.285156 250.277344 L 88.300781 250.289062 L 89.140625 249.617188 L 90.050781 248.90625 L 90.039062 248.878906 C 98.820312 241.585938 104.652344 231.421875 106.496094 220.121094 C 108.339844 208.730469 105.996094 197.171875 99.898438 187.425781 L 99.898438 187.414062 " fill-opacity="1" fill-rule="nonzero"/><path fill="#fca311" d="M 102.96875 134.097656 C 140.480469 113.203125 181.734375 108.605469 217.589844 114.019531 C 178.511719 107.789062 133.28125 113.1875 93.066406 137.484375 C 96.410156 136.246094 99.714844 135.113281 102.96875 134.097656 " fill-opacity="1" fill-rule="nonzero"/><path fill="#fca311" d="M 334.585938 197.25 C 338.074219 204.070312 340.957031 211.246094 343.210938 218.738281 C 340.972656 211.261719 338.085938 204.070312 334.585938 197.25 " fill-opacity="1" fill-rule="nonzero"/><path fill="#fca311" d="M 260.03125 131.898438 C 219.472656 116.164062 168.148438 115.613281 122.957031 137.945312 C 123.441406 138.511719 123.878906 139.089844 124.273438 139.695312 C 168.003906 117.085938 219.238281 116.808594 259.871094 132.28125 C 293.1875 144.832031 319.519531 167.769531 334.585938 197.25 C 319.507812 167.625 293.316406 144.75 260.03125 131.898438 " fill-opacity="1" fill-rule="nonzero"/><path fill="#fca311" d="M 290.550781 151.296875 C 241.753906 119.652344 172.648438 119.007812 122.574219 151.175781 C 121.640625 152.441406 120.757812 153.730469 119.902344 155.023438 C 168.527344 119.929688 240.464844 118.941406 290.550781 151.296875 " fill-opacity="1" fill-rule="nonzero"/><path fill="#fca311" d="M 292.199219 152.386719 C 297.019531 155.601562 301.640625 159.128906 306.011719 162.976562 C 301.652344 159.128906 297.03125 155.601562 292.199219 152.386719 " fill-opacity="1" fill-rule="nonzero"/><path fill="#fca311" d="M 248.929688 138.5625 C 195.917969 126.683594 143.140625 144.621094 113.304688 179.328125 C 112.804688 181.292969 112.449219 183.214844 112.210938 185.070312 C 139.296875 148.386719 192.097656 127.710938 246.152344 138.445312 C 282.257812 145.660156 318.96875 167.648438 337.402344 207.707031 C 319.441406 168.492188 284.140625 146.59375 248.929688 138.5625 " fill-opacity="1" fill-rule="nonzero"/><path fill="#fca311" d="M 349.4375 274.359375 C 350.386719 250.183594 346.527344 229.496094 339.296875 212.050781 C 346.488281 229.484375 350.332031 250.171875 349.4375 274.359375 " fill-opacity="1" fill-rule="nonzero"/><path fill="#fca311" d="M 156.21875 132.335938 C 163.65625 130.097656 171.226562 128.398438 178.839844 127.25 C 186.503906 126.066406 194.230469 125.433594 201.921875 125.316406 C 209.664062 125.199219 217.339844 125.617188 224.992188 126.554688 C 240.238281 128.410156 255.15625 132.375 269.128906 138.40625 C 256.054688 132.53125 241.753906 128.371094 226.847656 126.210938 C 219.421875 125.117188 211.769531 124.539062 204.121094 124.472656 C 196.429688 124.421875 188.6875 124.882812 180.960938 125.882812 C 173.214844 126.921875 165.5 128.503906 157.902344 130.648438 C 150.277344 132.820312 142.800781 135.535156 135.503906 138.917969 C 120.941406 145.648438 107.222656 154.8125 95.34375 166.726562 C 107.179688 155.890625 120.386719 147.175781 134.492188 140.601562 C 141.523438 137.324219 148.816406 134.546875 156.21875 132.335938 " fill-opacity="1" fill-rule="nonzero"/><path fill="#fca311" d="M 160.363281 139.851562 C 167.144531 137.46875 174.136719 135.574219 181.289062 134.164062 C 188.476562 132.742188 195.824219 131.820312 203.238281 131.425781 C 210.703125 131.015625 218.195312 131.148438 225.769531 131.808594 C 240.84375 133.152344 255.972656 136.679688 270.367188 142.644531 C 256.726562 136.796875 242.148438 133.058594 227.375 131.425781 C 220 130.609375 212.535156 130.332031 205.148438 130.570312 C 197.734375 130.808594 190.375 131.570312 183.132812 132.835938 C 175.863281 134.125 168.738281 135.929688 161.828125 138.21875 C 154.875 140.550781 148.183594 143.328125 141.71875 146.6875 C 128.84375 153.324219 117.097656 162 107.179688 172.667969 C 117.070312 163.027344 128.367188 154.796875 140.851562 148.292969 C 147.066406 145.054688 153.625 142.195312 160.363281 139.851562 " fill-opacity="1" fill-rule="nonzero"/></svg>